<svg width="60" height="60" viewBox="0 0 60 60" fill="none" xmlns="http://www.w3.org/2000/svg">
<path d="M45.7479 29.7565C45.7479 29.7565 46.4294 28.2566 46.1223 26.417C46.1223 26.417 44.828 25.9399 42.4765 26.417C42.4765 26.417 41.3515 28.9375 39.9194 30.1645C39.9194 30.1645 41.0112 27.6086 40.3621 25.7012C40.3621 25.7012 42.3392 24.9176 44.7606 25.0878C47.1799 25.2579 47.7241 25.7699 47.7241 25.7699C47.7241 25.7699 47.1114 28.6659 45.7479 29.7565ZM44.1857 35.0366C45.3107 34.2144 45.1909 32.603 45.1909 32.603C45.4634 33.2411 45.6161 34.0937 45.4634 34.7027C45.3108 35.3103 44.9163 35.9192 43.2725 36.0702C41.6291 36.2233 40.6859 35.7054 40.6859 35.7054C41.4173 34.9759 42.1267 32.9985 42.1267 32.9985C42.4925 34.3994 42.1817 35.0474 42.1817 35.0474C42.9729 35.2899 44.1857 35.0366 44.1857 35.0366ZM46.7743 34.7705C47.1704 37.662 44.5988 38.8757 43.17 38.8757C41.7404 38.8757 39.7754 38.2688 39.0257 35.8411C38.2759 33.4125 38.2759 30.4129 39.24 28.9488C39.24 28.9488 38.598 31.8411 38.9546 33.4844C39.3116 35.1269 39.9902 36.5195 41.3115 36.7703C42.6337 37.0194 44.5988 36.9482 45.3123 36.126C46.0279 35.3046 46.3129 34.1267 45.599 32.519C44.8838 30.9132 43.4555 28.841 45.8154 26.7714C45.8154 26.7714 44.7777 28.02 45.1705 29.8422C45.5628 31.6627 46.377 31.8798 46.7743 34.7705ZM37.5429 22.8114C32.1605 22.071 27.7453 23.1703 27.7453 23.1703C32.081 21.7733 36.0231 21.9479 37.9664 22.1705C37.7846 22.3934 37.6449 22.608 37.5429 22.8114ZM37.2903 24.1499C32.0298 23.7855 27.858 25.0748 27.858 25.0748C31.6512 23.6162 35.2013 23.424 37.3103 23.4827C37.2674 23.7025 37.2607 23.9279 37.2903 24.1499ZM28.4297 31.7555C26.4213 29.2923 27.2667 26.0007 27.2667 26.0007C27.2667 26.0007 27.3421 28.8241 29.8063 31.3183C32.2715 33.8135 35.3306 34.4885 35.3306 34.4885C35.3306 34.4885 30.4383 34.2201 28.4297 31.7555ZM39.2383 21.0333C38.9616 21.2255 38.7233 21.4139 38.5157 21.6002C32.7554 20.2398 27.7178 21.2039 27.7178 21.2039C33.9557 19.568 39.2383 21.0333 39.2383 21.0333ZM34.7462 18.0192L34.7474 18.018L34.7491 18.0171C34.8356 17.9802 36.5889 17.2477 38.3787 17.6545C40.2147 18.0725 41.3539 19.3165 41.3539 19.3165C41.3539 19.3165 39.7051 18.8223 36.6495 18.8768C36.6495 18.8768 36.5293 18.6543 36.8438 18.1885C36.8438 18.1885 36.3541 18.0455 34.7456 18.0192H34.7462ZM48.2667 18.5282C49.2062 18.3393 50.0636 18.8222 50.4665 19.1978C50.4665 19.1978 48.2942 18.7961 47.2761 19.734C47.2761 19.734 47.3298 18.7149 48.2667 18.5282ZM58.6194 25.6921C56.4967 24.5346 54.0894 24.1748 52.2426 24.1028C52.2426 24.1028 51.4911 24.1165 51.3751 24.1133C51.413 23.8059 51.4034 23.5305 51.3547 23.2872C51.8132 23.2735 52.3935 23.2551 52.4785 23.2509L52.5484 23.2467C56.2492 23.1257 58.2059 24.1035 58.2059 24.1035L58.0182 23.9609C56.2158 23.1257 54.3086 22.82 52.659 22.7733H52.5929C52.5929 22.7733 51.7961 22.7721 51.19 22.7833C51.024 22.4331 50.7814 22.169 50.5368 21.9759C51.3161 21.9714 52.2189 21.9739 52.7389 21.9972L52.7768 21.9984C55.6243 22.0284 57.1775 22.7029 57.1775 22.7029L56.9906 22.556C55.5781 21.9534 54.1349 21.6805 52.7819 21.5903C52.7819 21.5903 51.0177 21.4958 49.6578 21.5037C50.0517 21.8019 50.3531 22.2312 50.3821 22.848C50.4745 24.7479 48.5119 25.5137 48.5119 25.5137C48.9729 25.2067 49.8 24.1661 49.5861 22.8168C49.3706 21.4692 47.624 20.8286 47.624 20.8286C47.624 20.8286 45.5783 21.7149 45.1344 23.3837C45.1344 23.3837 45.1689 21.6468 42.2711 20.5217C42.2711 20.5217 43.6345 20.1132 45.101 20.2147C46.5664 20.3179 47.624 20.8286 47.624 20.8286C47.624 20.8286 47.894 20.1145 49.3319 19.8703C50.771 19.6261 52.3266 19.9781 52.3266 19.9781C52.0395 19.454 51.7087 18.6895 50.2621 18.0989C48.8167 17.5082 47.5199 18.0427 47.5199 18.0427C47.5199 18.0427 47.4258 17.3448 46.3749 16.6651C44.6671 15.5609 40.1504 14.9028 39.2792 14.8554C38.4097 14.8097 39.9324 15.3699 40.5423 15.7181C41.2359 16.1127 42.0119 16.7837 42.0785 17.4205C42.0955 17.5919 42.0552 17.7408 41.9786 17.8651C41.9171 17.6871 41.7885 17.4596 41.5626 17.1692C40.3253 15.5808 37.1874 14.8937 34.8321 15.0505C32.4773 15.2077 30.6059 16.0982 30.6059 16.0982C30.6329 16.3158 29.7375 17.0748 27.2678 17.3473C24.9146 17.6052 23.2537 17.1751 22.6563 17.0865L22.611 17.0778C22.3688 17.0478 22.187 17.0587 22.1109 17.2329L22.103 17.2571L22.098 17.2895C22.0875 17.4109 22.1621 17.5785 22.1621 17.5785L22.1275 17.5124C22.2951 17.8339 23.2962 19.679 24.6155 20.6261C24.6155 20.6261 25.4039 20.4589 26.3391 20.3582C26.3391 20.3582 11.8838 27.3915 6.02747 38.3803C8.57915 38.0808 11.9366 37.8878 15.5813 38.2089L15.5567 38.2064H15.5546C16.0809 37.3213 18.722 32.3789 25.0028 29.3423C25.0028 29.3423 20.3588 32.5699 18.7083 38.6091C20.8081 38.9652 22.9529 39.5175 25.0531 40.3349C31.8036 42.9648 37.4939 45.7145 43.9086 45.6578L44.999 45.6099L44.997 45.6049C43.2929 42.0541 41.6153 40.4312 41.6153 40.4312C42.8838 40.6587 43.9086 40.2973 43.9273 40.2911C44.0226 40.2565 44.1049 40.2224 44.174 40.1909C46.2722 39.06 46.622 37.1459 46.7943 35.7746C46.9915 34.1891 46.7103 33.1751 46.7103 33.1751C46.7103 33.1751 50.3425 28.4085 51.2645 24.6594C51.2645 24.6594 51.7296 24.5958 52.0874 24.6032C56.4156 24.6519 58.7809 25.8543 58.7809 25.8543L58.6195 25.6917L58.6194 25.6921ZM53.9354 17.5799C53.9487 17.5495 53.9592 17.5212 53.9675 17.4933L53.9865 17.4239L53.9862 17.4205C53.9026 17.1822 53.7369 17.1647 53.3867 17.1921C52.9306 17.2786 52.471 17.3447 52.0091 17.3901H52.0099L51.945 17.3972L51.8988 17.4014L51.7269 17.4173L51.7023 17.4181C51.1914 17.4601 50.8677 17.4621 50.8677 17.4621C52.1737 18.4495 52.3265 19.9785 52.3265 19.9785L52.3934 19.9215C53.3957 19.1941 53.9354 17.5799 53.9354 17.5799Z" fill="black"/>
<path d="M40.3623 25.7014C41.0113 27.6088 39.9196 30.1646 39.9196 30.1646C41.3517 28.9376 42.4767 26.4172 42.4767 26.4172C44.8282 25.94 46.1225 26.4172 46.1225 26.4172C46.4296 28.2568 45.7481 29.7566 45.7481 29.7566C47.1116 28.6661 47.7244 25.77 47.7244 25.77C47.7244 25.77 47.1802 25.258 44.7609 25.0879C42.3394 24.9178 40.3624 25.7014 40.3624 25.7014H40.3623ZM48.2669 18.5284C47.3299 18.7151 47.2763 19.7341 47.2763 19.7341C48.2944 18.7962 50.4666 19.198 50.4666 19.198C50.0639 18.8224 49.2064 18.3395 48.2669 18.5284ZM44.1858 35.0369C44.1858 35.0369 42.973 35.2902 42.1817 35.0477C42.1817 35.0477 42.4925 34.3997 42.1267 32.9988C42.1267 32.9988 41.4174 34.9762 40.6859 35.7056C40.6859 35.7056 41.6291 36.2234 43.2725 36.0704C44.9164 35.9195 45.3107 35.3106 45.4635 34.7029C45.6161 34.094 45.4635 33.2413 45.191 32.6033C45.191 32.6033 45.3108 34.2145 44.1857 35.0369H44.1858ZM38.379 17.6545C36.5892 17.2477 34.8359 17.9802 34.7494 18.0172C34.8342 17.9809 36.5085 17.2822 38.2542 17.6282C37.2623 17.4402 36.8442 18.1885 36.8442 18.1885C36.5297 18.6544 36.6499 18.8768 36.6499 18.8768C39.7054 18.8224 41.3543 19.3165 41.3543 19.3165C41.3543 19.3165 40.215 18.0725 38.379 17.6545Z" fill="#BFC0BF"/>
<path d="M48.2668 18.5284C47.3299 18.7151 47.2762 19.7342 47.2762 19.7342C48.2943 18.7962 50.4666 19.198 50.4666 19.198C50.0638 18.8224 49.2063 18.3395 48.2668 18.5284ZM38.379 17.6546C36.5892 17.2478 34.8358 17.9802 34.7493 18.0172C34.8342 17.981 36.5084 17.2822 38.2542 17.6283C37.2622 17.4402 36.8442 18.1886 36.8442 18.1886C36.5296 18.6544 36.6499 18.8769 36.6499 18.8769C39.7053 18.8224 41.3542 19.3166 41.3542 19.3166C41.3542 19.3166 40.215 18.0725 38.379 17.6546Z" fill="#EBF855"/>
<path d="M51.2645 24.6599C50.3425 28.409 46.7104 33.1756 46.7104 33.1756L46.7121 33.1739C49.4572 30.8327 51.2869 26.6917 52.0875 24.6037C51.7296 24.5963 51.2645 24.6599 51.2645 24.6599ZM51.3751 24.1134C51.4912 24.1168 52.2426 24.103 52.2426 24.103C52.3121 23.8692 52.3969 23.5714 52.4785 23.2512C52.3937 23.2554 51.8133 23.2736 51.3547 23.2874C51.4035 23.5308 51.4129 23.806 51.3751 24.1134ZM45.1705 29.8423C44.7778 28.0201 45.8154 26.7715 45.8154 26.7715C43.4556 28.8412 44.8839 30.9133 45.5991 32.5192C46.3131 34.1267 46.0281 35.3046 45.3124 36.1261C44.5989 36.9484 42.6339 37.0195 41.3116 36.7704C39.9901 36.5196 39.3117 35.1271 38.9547 33.4846C38.5981 31.8413 39.24 28.9489 39.24 28.9489C38.2761 30.4129 38.2761 33.4127 39.0257 35.8412C39.7755 38.269 41.7405 38.8758 43.17 38.8758C44.5987 38.8758 47.1703 37.6621 46.7743 34.7706C46.377 31.8799 45.5629 31.6628 45.1705 29.8423ZM54.01 17.2322L54.0049 17.1852L54.0012 17.1611L53.9884 17.1203L53.9805 17.099L53.9634 17.0636L53.9543 17.0466L53.9319 17.015L53.9194 17.0014L53.8948 16.9756L53.8819 16.9639L53.8533 16.9423L53.8396 16.9327L53.8101 16.9165L53.7964 16.9086L53.7664 16.8953L53.7535 16.889L53.7252 16.8791L53.7127 16.8754L53.6853 16.8679L53.6761 16.865L53.6508 16.8605L53.6434 16.8588L53.6238 16.8563L53.6193 16.8551L53.5972 16.8526C51.7932 16.8721 50.3121 16.2602 50.3121 16.2602L50.1906 16.2166C46.1803 14.7496 42.0181 14.3296 38.3123 14.3969L38.3111 14.3932C36.6561 14.4085 35.4478 14.5438 35.4478 14.5438C30.1269 14.9934 26.3125 16.2682 26.3125 16.2682C26.3125 16.2682 24.8643 16.6758 22.9362 16.5797C22.9362 16.5797 22.2202 16.5672 22.0787 17.0231C21.9576 17.3134 21.9409 17.6586 22.2135 18.4144C22.528 19.2862 23.7862 20.9249 23.7957 20.937C19.99 22.4826 10.0792 28.0398 1.20026 39.2141C1.20026 39.2141 3.0767 38.7266 6.02774 38.381C11.8841 27.3923 26.3394 20.359 26.3394 20.359C25.4041 20.4596 24.6157 20.6268 24.6157 20.6268C23.2965 19.6798 22.2954 17.8346 22.1278 17.5132L22.1623 17.5793C22.1623 17.5793 22.0878 17.4116 22.0983 17.2902L22.1033 17.2578L22.1112 17.2337C22.1873 17.0594 22.3692 17.0486 22.6113 17.0785L22.6566 17.0873C23.2541 17.1758 24.9149 17.6059 27.2681 17.348C29.7378 17.0756 30.6331 16.3165 30.6061 16.099C30.6061 16.099 32.4775 15.2084 34.8324 15.0512C37.1877 14.8944 40.3255 15.5815 41.5629 17.17C41.7888 17.4602 41.9173 17.6878 41.9789 17.8658C42.0555 17.7415 42.0958 17.5926 42.0787 17.4212C42.0121 16.7844 41.2362 16.1136 40.5426 15.7188C39.9327 15.3707 38.41 14.8104 39.2795 14.8561C40.1507 14.9035 44.6674 15.5615 46.3752 16.6658C47.4262 17.3455 47.5201 18.0434 47.5201 18.0434C47.5201 18.0434 48.817 17.509 50.2624 18.0996C51.709 18.6902 52.0397 19.4546 52.3269 19.9788C52.3269 19.9788 52.1742 18.4499 50.8681 17.4624C50.8681 17.4624 51.1918 17.4604 51.7027 17.4184L51.7273 17.4175L51.8992 17.4017L51.9454 17.3975L52.0103 17.3904H52.0095C52.4064 17.3513 52.8773 17.2894 53.3871 17.1924C53.7373 17.1649 53.9029 17.1824 53.9866 17.4208L53.9869 17.4241L53.9679 17.4936C53.959 17.5231 53.9483 17.552 53.9358 17.5801C53.9358 17.5801 53.3962 19.1944 52.3939 19.9218L52.3269 19.9788C52.3269 19.9788 50.7713 19.627 49.3323 19.871C47.8944 20.1152 47.6244 20.8294 47.6244 20.8294C47.6244 20.8294 49.371 21.4699 49.5865 22.8175C49.8004 24.1668 48.9732 25.2074 48.5123 25.5144C48.5123 25.5144 50.4748 24.7487 50.3825 22.8487C50.3533 22.2319 50.0521 21.8027 49.6582 21.5045C51.0183 21.4966 52.7823 21.591 52.7823 21.591C52.7905 21.0648 52.7032 20.6315 52.5027 20.2562C53.5465 19.3504 53.9322 17.9704 53.9872 17.4263L53.988 17.4254V17.4242C53.9931 17.4059 54.0025 17.3564 54.0042 17.3456L54.0071 17.3144C54.0094 17.2965 54.0106 17.2784 54.0105 17.2603V17.2325L54.01 17.2322ZM42.2711 20.5222C45.1689 21.6473 45.1344 23.3842 45.1344 23.3842C45.5783 21.7154 47.6241 20.8291 47.6241 20.8291C47.6241 20.8291 46.5665 20.3184 45.1011 20.2152C43.6344 20.1137 42.2711 20.5222 42.2711 20.5222ZM50.5368 21.9762C50.7815 22.1692 51.024 22.4333 51.19 22.7836C51.7962 22.7723 52.5929 22.7736 52.5929 22.7736C52.6503 22.5174 52.701 22.2595 52.7361 22.0183L52.7389 21.9976C52.2189 21.9743 51.316 21.9716 50.5368 21.9762ZM43.9275 40.2914C43.9087 40.2977 42.8839 40.6591 41.6154 40.4316C41.6154 40.4316 43.2929 42.0546 44.9971 45.6053L44.9992 45.6103L45.0658 45.6061C44.901 43.9878 44.2099 41.2776 44.0502 40.7764L43.9275 40.2914ZM29.8066 31.3182C27.3423 28.8239 27.267 26.0006 27.267 26.0006C27.267 26.0006 26.4216 29.2922 28.4299 31.7554C30.4386 34.2202 35.331 34.4884 35.331 34.4884C35.331 34.4884 32.2716 33.8134 29.8066 31.3182ZM15.5547 38.2068H15.5567L15.5813 38.2093C15.6732 38.2172 15.9673 38.2447 15.9837 38.2471C16.0236 38.2505 16.5287 38.3033 16.5333 38.3036C17.2611 38.3848 17.9864 38.4867 18.7084 38.6094C20.3589 32.5702 25.0029 29.3425 25.0029 29.3425C18.7222 32.3792 16.081 37.3218 15.5547 38.2068ZM27.718 21.2038C27.718 21.2038 32.7556 20.2397 38.5158 21.6001C38.7234 21.4138 38.9619 21.2254 39.2385 21.0332C39.2385 21.0332 33.9558 19.5679 27.718 21.2038ZM27.7455 23.1702C27.7455 23.1702 32.1606 22.0709 37.5431 22.8113C37.645 22.6079 37.7848 22.3933 37.9667 22.1704C36.0233 21.9479 32.0811 21.7732 27.7455 23.1702ZM38.2541 17.628C36.5083 17.2819 34.8341 17.9807 34.7493 18.0169L34.7476 18.0178L34.7464 18.019H34.746C36.3545 18.0451 36.8442 18.1883 36.8442 18.1883C36.8442 18.1883 37.2622 17.4401 38.2541 17.628ZM27.8581 25.0747C27.8581 25.0747 32.0299 23.7853 37.2905 24.1498C37.2609 23.9278 37.2676 23.7024 37.3104 23.4826C35.2014 23.4239 31.6512 23.6161 27.8581 25.0747Z" fill="#125740"/>
<path fill-rule="evenodd" clip-rule="evenodd" d="M41.5407 19.5L41.5316 19.4944L41.5316 19.4906L41.5407 19.5ZM35.6779 17.8618C35.9254 18.2562 36.7555 18.5804 37.3772 18.776L39.2181 18.8008C39.6803 18.6825 40.0035 18.5356 40.0035 18.5356C40.0035 18.5356 39.494 18.1908 39.8318 17.698C40.1695 17.2051 40.1548 16.6213 39.6849 16.5C39.9199 17.0779 39.4138 17.3068 39.0134 17.488C38.6792 17.6391 38.4185 17.757 38.7234 18.0168C38.3828 17.9213 38.0523 17.8589 37.7423 17.8198L37.7424 17.8197L37.7346 17.8188L37.7287 17.8181C37.5957 17.8012 36.5412 17.6453 36.8579 16.9701C36.8579 16.9701 36.0906 17.4115 36.5844 17.767C36.4013 17.7732 36.2406 17.7857 36.1072 17.7995L36.1072 17.7995C36.1072 17.7995 35.4849 17.7928 35.6391 17.0876C35.6391 17.0876 35.2175 17.5822 35.6779 17.8618Z" fill="#EBF855"/>
<path fill-rule="evenodd" clip-rule="evenodd" d="M46.4449 19.7925L46.4449 19.7956L46.4376 19.8L46.4449 19.7925ZM47.6756 19.0321C47.6848 19.0213 47.6941 19.0106 47.7038 19C47.682 19.0186 47.6674 19.0285 47.6674 19.0285L47.6756 19.0321ZM47.7781 18.9252C47.9188 18.7962 48.1054 18.691 48.3528 18.6423C48.4718 18.6187 48.5895 18.6056 48.7052 18.6015C48.9273 18.402 48.7217 18.309 48.4595 18.1904C48.1391 18.0455 47.7343 17.8624 47.9222 17.4C47.5463 17.4971 47.5346 17.9641 47.8048 18.3584C47.976 18.6082 47.875 18.8105 47.7781 18.9252ZM48.7384 18.6005C49.3285 18.5881 49.8634 18.8072 50.2439 19.0535C50.6223 18.9037 50.9893 18.7104 51.1278 18.4895C51.4962 18.2658 51.1589 17.8701 51.1589 17.8701C51.2823 18.4342 50.7844 18.4396 50.7844 18.4396L50.7844 18.4396C50.6777 18.4286 50.5491 18.4186 50.4027 18.4137C50.7977 18.1292 50.1839 17.7761 50.1839 17.7761C50.4372 18.3163 49.5936 18.441 49.4872 18.4545L49.4825 18.4551L49.4763 18.4558L49.4763 18.4558C49.2426 18.4853 48.9943 18.5314 48.7384 18.6005Z" fill="#EBF855"/>
</svg>
