<svg width="88" height="82" viewBox="0 0 88 82" fill="none" xmlns="http://www.w3.org/2000/svg">
<mask id="path-1-outside-1_108_1918" maskUnits="userSpaceOnUse" x="0.571289" y="0.0852051" width="81" height="76" fill="black">
<rect fill="white" x="0.571289" y="0.0852051" width="81" height="76"/>
<path fill-rule="evenodd" clip-rule="evenodd" d="M68.4683 63.1279C63.6332 62.4359 58.3068 61.9242 52.6465 61.6309C52.0622 60.6863 51.77 59.5272 51.77 58.1605V41.3631H60.3326V57.6537C60.3326 58.3777 60.511 58.8121 61.2245 58.8121C61.9381 58.8121 62.2056 58.3777 62.2056 57.6537V43.68C62.2056 42.232 61.9381 41.6527 60.6894 40.6391L55.9621 36.8742C53.1079 34.7021 52.0376 32.3128 52.0376 28.9823V16.7462C52.0376 12.6917 54.4458 10.0852 60.6894 10.0852H62.6516C68.9843 10.0852 70.8574 12.6917 70.8574 16.167V30.6475H62.5624V16.4566C62.5624 15.8774 62.2948 15.5878 61.6705 15.5878C61.0461 15.5878 60.7785 15.8774 60.7785 16.4566V28.6927C60.7785 30.0683 61.0461 30.5027 62.1164 31.444L66.7545 35.2089C70.1438 37.6706 71.2141 39.6255 71.2141 43.3904V57.2917C71.2141 59.8451 70.3197 61.854 68.4683 63.1279ZM19.093 62.5417C16.4618 62.8384 13.9475 63.1857 11.5713 63.5785L15.7061 10.4472H26.766L31.0006 61.5967C28.1575 61.7346 25.3963 61.9274 22.7366 62.1704L22.3064 53.382H19.5414L19.093 62.5417ZM49.9096 61.5072C47.1651 61.4013 44.3505 61.3462 41.4829 61.3462C38.1246 61.3462 34.8391 61.4217 31.6535 61.5661V10.4472H44.0514C47.8867 10.4472 50.7408 12.1125 50.7408 16.4566V58.0157C50.7408 59.4115 50.4452 60.5754 49.9096 61.5072ZM22.0388 47.2277L20.9685 24.4933L19.8981 47.2277H22.0388ZM40.2161 16.2394V58.3777H41.0188C41.8215 58.3777 42.0891 57.9433 42.0891 57.0021V17.5427C42.0891 16.6738 41.8215 16.2394 41.0188 16.2394H40.2161Z"/>
</mask>
<path fill-rule="evenodd" clip-rule="evenodd" d="M68.4683 63.1279C63.6332 62.4359 58.3068 61.9242 52.6465 61.6309C52.0622 60.6863 51.77 59.5272 51.77 58.1605V41.3631H60.3326V57.6537C60.3326 58.3777 60.511 58.8121 61.2245 58.8121C61.9381 58.8121 62.2056 58.3777 62.2056 57.6537V43.68C62.2056 42.232 61.9381 41.6527 60.6894 40.6391L55.9621 36.8742C53.1079 34.7021 52.0376 32.3128 52.0376 28.9823V16.7462C52.0376 12.6917 54.4458 10.0852 60.6894 10.0852H62.6516C68.9843 10.0852 70.8574 12.6917 70.8574 16.167V30.6475H62.5624V16.4566C62.5624 15.8774 62.2948 15.5878 61.6705 15.5878C61.0461 15.5878 60.7785 15.8774 60.7785 16.4566V28.6927C60.7785 30.0683 61.0461 30.5027 62.1164 31.444L66.7545 35.2089C70.1438 37.6706 71.2141 39.6255 71.2141 43.3904V57.2917C71.2141 59.8451 70.3197 61.854 68.4683 63.1279ZM19.093 62.5417C16.4618 62.8384 13.9475 63.1857 11.5713 63.5785L15.7061 10.4472H26.766L31.0006 61.5967C28.1575 61.7346 25.3963 61.9274 22.7366 62.1704L22.3064 53.382H19.5414L19.093 62.5417ZM49.9096 61.5072C47.1651 61.4013 44.3505 61.3462 41.4829 61.3462C38.1246 61.3462 34.8391 61.4217 31.6535 61.5661V10.4472H44.0514C47.8867 10.4472 50.7408 12.1125 50.7408 16.4566V58.0157C50.7408 59.4115 50.4452 60.5754 49.9096 61.5072ZM22.0388 47.2277L20.9685 24.4933L19.8981 47.2277H22.0388ZM40.2161 16.2394V58.3777H41.0188C41.8215 58.3777 42.0891 57.9433 42.0891 57.0021V17.5427C42.0891 16.6738 41.8215 16.2394 41.0188 16.2394H40.2161Z" fill="black"/>
<path d="M52.6465 61.6309L44.1421 66.8916L46.8978 71.3465L52.1291 71.6175L52.6465 61.6309ZM68.4683 63.1279L67.0515 73.027L70.9184 73.5804L74.1366 71.3662L68.4683 63.1279ZM51.77 41.3631V31.3631H41.77V41.3631H51.77ZM60.3326 41.3631H70.3326V31.3631H60.3326V41.3631ZM60.6894 40.6391L66.9918 32.8751L66.9557 32.8458L66.9193 32.8168L60.6894 40.6391ZM55.9621 36.8742L62.1921 29.0519L62.1058 28.9832L62.0181 28.9164L55.9621 36.8742ZM70.8574 30.6475V40.6475H80.8574V30.6475H70.8574ZM62.5624 30.6475H52.5624V40.6475H62.5624V30.6475ZM62.1164 31.444L55.5127 38.9534L55.6609 39.0836L55.814 39.208L62.1164 31.444ZM66.7545 35.2089L60.4521 42.9729L60.6606 43.1422L60.8779 43.3L66.7545 35.2089ZM11.5713 63.5785L1.60143 62.8026L0.611273 75.526L13.2023 73.4446L11.5713 63.5785ZM19.093 62.5417L20.2133 72.4788L28.6652 71.5259L29.081 63.0306L19.093 62.5417ZM15.7061 10.4472V0.447218H6.45405L5.73621 9.67134L15.7061 10.4472ZM26.766 10.4472L36.7319 9.62215L35.9723 0.447218H26.766V10.4472ZM31.0006 61.5967L31.4849 71.585L41.8203 71.0839L40.9666 60.7717L31.0006 61.5967ZM22.7366 62.1704L12.7485 62.6594L13.2585 73.0782L23.6466 72.129L22.7366 62.1704ZM22.3064 53.382L32.2944 52.893L31.8288 43.382H22.3064V53.382ZM19.5414 53.382V43.382H10.0189L9.55333 52.893L19.5414 53.382ZM49.9096 61.5072L49.5238 71.4998L55.5664 71.7331L58.5797 66.4903L49.9096 61.5072ZM31.6535 61.5661H21.6535V72.0296L32.1063 71.5558L31.6535 61.5661ZM31.6535 10.4472V0.447218H21.6535V10.4472H31.6535ZM20.9685 24.4933L30.9574 24.023H10.9795L20.9685 24.4933ZM22.0388 47.2277V57.2277H32.5206L32.0277 46.7575L22.0388 47.2277ZM19.8981 47.2277L9.90921 46.7575L9.41628 57.2277H19.8981V47.2277ZM40.2161 58.3777H30.2161V68.3777H40.2161V58.3777ZM40.2161 16.2394V6.23942H30.2161V16.2394H40.2161ZM52.1291 71.6175C57.5193 71.8968 62.5439 72.3819 67.0515 73.027L69.8851 53.2287C64.7225 52.4899 59.0942 51.9515 53.1639 51.6443L52.1291 71.6175ZM61.1509 56.3702C61.7498 57.3383 61.77 58.1024 61.77 58.1605H41.77C41.77 60.952 42.3746 64.0344 44.1421 66.8916L61.1509 56.3702ZM61.77 58.1605V41.3631H41.77V58.1605H61.77ZM51.77 51.3631H60.3326V31.3631H51.77V51.3631ZM50.3326 41.3631V57.6537H70.3326V41.3631H50.3326ZM50.3326 57.6537C50.3326 58.332 50.3062 61.2474 52.2108 64.0818C54.7621 67.8786 58.6851 68.8121 61.2245 68.8121V48.8121C62.0167 48.8121 63.3434 48.9271 64.8462 49.5951C66.4699 50.3169 67.8415 51.4841 68.8112 52.9271C69.7037 54.2554 70.0444 55.4985 70.1857 56.2211C70.3265 56.9407 70.3326 57.4771 70.3326 57.6537H50.3326ZM61.2245 68.8121C63.715 68.8121 67.2887 67.9445 69.8526 64.674C72.0268 61.9006 72.2056 58.9337 72.2056 57.6537H52.2056C52.2056 57.0977 52.2507 54.71 54.1127 52.3348C56.3644 49.4625 59.4476 48.8121 61.2245 48.8121V68.8121ZM72.2056 57.6537V43.68H52.2056V57.6537H72.2056ZM72.2056 43.68C72.2056 42.4793 72.1351 40.1118 70.8859 37.5765C69.6818 35.133 67.9135 33.6233 66.9918 32.8751L54.3869 48.4031C54.7139 48.6685 53.7038 47.9553 52.9457 46.4168C52.1424 44.7865 52.2056 43.4326 52.2056 43.68H72.2056ZM66.9193 32.8168L62.1921 29.0519L49.7322 44.6964L54.4594 48.4614L66.9193 32.8168ZM62.0181 28.9164C61.7657 28.7244 61.6938 28.6346 61.7161 28.6604C61.7278 28.6739 61.7585 28.7114 61.7991 28.7725C61.84 28.8342 61.8834 28.9086 61.9243 28.9928C61.9651 29.0769 61.9966 29.1566 62.0196 29.2259C62.0423 29.2945 62.0527 29.341 62.0561 29.358C62.0593 29.374 62.0546 29.3556 62.0492 29.2949C62.0437 29.2334 62.0376 29.1317 62.0376 28.9823H42.0376C42.0376 31.7375 42.4857 34.7497 43.9349 37.7325C45.3893 40.7262 47.5264 43.0208 49.9062 44.8319L62.0181 28.9164ZM62.0376 28.9823V16.7462H42.0376V28.9823H62.0376ZM62.0376 16.7462C62.0376 16.7009 62.0465 17.0785 61.806 17.6844C61.5408 18.3523 61.075 19.0321 60.4448 19.5601C59.8528 20.0562 59.3933 20.1873 59.389 20.1885C59.3881 20.1888 59.4128 20.1818 59.4667 20.1714C59.5207 20.161 59.601 20.1477 59.7104 20.1346C59.9319 20.1082 60.253 20.0852 60.6894 20.0852V0.0852051C56.4232 0.0852051 51.5288 0.937964 47.5995 4.23043C43.3285 7.80928 42.0376 12.6799 42.0376 16.7462H62.0376ZM60.6894 20.0852H62.6516V0.0852051H60.6894V20.0852ZM62.6516 20.0852C63.5865 20.0852 63.9418 20.1856 63.9079 20.1761C63.8421 20.1577 63.2825 19.9855 62.6 19.3971C61.8781 18.7748 61.3769 17.9946 61.101 17.2578C60.9751 16.9218 60.9151 16.6464 60.8862 16.4631C60.8577 16.2822 60.8574 16.177 60.8574 16.167H80.8574C80.8574 12.6467 79.8521 7.86369 75.6585 4.24864C71.7934 0.91675 66.9109 0.0852051 62.6516 0.0852051V20.0852ZM60.8574 16.167V30.6475H80.8574V16.167H60.8574ZM70.8574 20.6475H62.5624V40.6475H70.8574V20.6475ZM72.5624 30.6475V16.4566H52.5624V30.6475H72.5624ZM72.5624 16.4566C72.5624 14.821 72.1983 11.508 69.4184 8.73069C66.6439 5.95877 63.3317 5.5878 61.6705 5.5878V25.5878C60.6336 25.5878 57.7673 25.3616 55.2828 22.8793C52.7928 20.3916 52.5624 17.5131 52.5624 16.4566H72.5624ZM61.6705 5.5878C60.0092 5.5878 56.697 5.95877 53.9226 8.73067C51.1427 11.508 50.7785 14.821 50.7785 16.4566H70.7785C70.7785 17.5131 70.5482 20.3917 68.0582 22.8793C65.5736 25.3616 62.7074 25.5878 61.6705 25.5878V5.5878ZM50.7785 16.4566V28.6927H70.7785V16.4566H50.7785ZM50.7785 28.6927C50.7785 29.8972 50.8573 32.2339 52.1161 34.7316C53.2656 37.0127 54.9433 38.4526 55.5127 38.9534L68.7202 23.9346C68.5407 23.7768 68.6657 23.8735 68.8798 24.1108C69.1352 24.3938 69.5764 24.9375 69.9762 25.7308C70.8336 27.4321 70.7785 28.8638 70.7785 28.6927H50.7785ZM55.814 39.208L60.4521 42.9729L73.0569 27.4449L68.4189 23.68L55.814 39.208ZM60.8779 43.3C61.1511 43.4984 61.351 43.6556 61.4957 43.7769C61.6397 43.8976 61.7146 43.9707 61.7419 43.9985C61.7676 44.0247 61.7418 44.0014 61.6871 43.9292C61.6305 43.8546 61.5551 43.7438 61.4767 43.6001C61.3978 43.4555 61.3322 43.3075 61.2817 43.1663C61.2319 43.0272 61.2068 42.9229 61.1959 42.8695C61.1856 42.8191 61.1907 42.8274 61.1981 42.9131C61.2056 43.0005 61.2141 43.1534 61.2141 43.3904H81.2141C81.2141 40.5633 80.8152 37.2867 79.0339 34.0217C77.3179 30.8764 74.8484 28.7283 72.6311 27.1178L60.8779 43.3ZM61.2141 43.3904V57.2917H81.2141V43.3904H61.2141ZM61.2141 57.2917C61.2141 57.4147 61.1927 57.0663 61.4645 56.4805C61.7643 55.8345 62.2544 55.2649 62.8 54.8895L74.1366 71.3662C79.2863 67.823 81.2141 62.3543 81.2141 57.2917H61.2141ZM13.2023 73.4446C15.3959 73.082 17.7394 72.7577 20.2133 72.4788L17.9727 52.6047C15.1842 52.919 12.499 53.2894 9.94031 53.7124L13.2023 73.4446ZM5.73621 9.67134L1.60143 62.8026L21.5411 64.3544L25.6759 11.2231L5.73621 9.67134ZM26.766 0.447218H15.7061V20.4472H26.766V0.447218ZM40.9666 60.7717L36.7319 9.62215L16.8001 11.2723L21.0347 62.4218L40.9666 60.7717ZM23.6466 72.129C26.1597 71.8993 28.7789 71.7162 31.4849 71.585L30.5164 51.6085C27.5361 51.753 24.6328 51.9555 21.8265 52.2119L23.6466 72.129ZM12.3183 53.8709L12.7485 62.6594L32.7246 61.6815L32.2944 52.893L12.3183 53.8709ZM19.5414 63.382H22.3064V43.382H19.5414V63.382ZM29.081 63.0306L29.5294 53.8709L9.55333 52.893L9.10496 62.0528L29.081 63.0306ZM41.4829 71.3462C44.2229 71.3462 46.9089 71.3988 49.5238 71.4998L50.2955 51.5147C47.4213 51.4037 44.4781 51.3462 41.4829 51.3462V71.3462ZM32.1063 71.5558C35.1393 71.4184 38.2739 71.3462 41.4829 71.3462V51.3462C37.9754 51.3462 34.5388 51.4251 31.2007 51.5764L32.1063 71.5558ZM21.6535 10.4472V61.5661H41.6535V10.4472H21.6535ZM44.0514 0.447218H31.6535V20.4472H44.0514V0.447218ZM60.7408 16.4566C60.7408 11.923 59.1296 7.26967 55.1011 4.03003C51.4568 1.09945 47.1975 0.447218 44.0514 0.447218V20.4472C44.7406 20.4472 43.826 20.6276 42.5676 19.6157C41.8836 19.0657 41.3546 18.3529 41.0382 17.6119C40.7417 16.9173 40.7408 16.4582 40.7408 16.4566H60.7408ZM60.7408 58.0157V16.4566H40.7408V58.0157H60.7408ZM58.5797 66.4903C60.1401 63.7753 60.7408 60.8242 60.7408 58.0157H40.7408C40.7408 57.9989 40.7503 57.3755 41.2396 56.5242L58.5797 66.4903ZM10.9795 24.9636L12.0498 47.698L32.0277 46.7575L30.9574 24.023L10.9795 24.9636ZM29.8871 47.698L30.9574 24.9636L10.9795 24.023L9.90921 46.7575L29.8871 47.698ZM22.0388 37.2277H19.8981V57.2277H22.0388V37.2277ZM50.2161 58.3777V16.2394H30.2161V58.3777H50.2161ZM41.0188 48.3777H40.2161V68.3777H41.0188V48.3777ZM32.0891 57.0021C32.0891 56.8181 32.097 56.2535 32.263 55.4898C32.4323 54.7108 32.83 53.4292 33.8133 52.0989C36.2223 48.8396 39.6245 48.3777 41.0188 48.3777V68.3777C43.2158 68.3777 47.1531 67.6987 49.8967 63.9868C52.0663 61.0515 52.0891 57.9214 52.0891 57.0021H32.0891ZM32.0891 17.5427V57.0021H52.0891V17.5427H32.0891ZM41.0188 26.2394C39.6421 26.2394 36.3408 25.7951 33.9315 22.6659C32.0142 20.1757 32.0891 17.6829 32.0891 17.5427H52.0891C52.0891 16.5336 52.0303 13.3892 49.7785 10.4646C47.0347 6.90094 43.1982 6.23942 41.0188 6.23942V26.2394ZM40.2161 26.2394H41.0188V6.23942H40.2161V26.2394Z" fill="black" mask="url(#path-1-outside-1_108_1918)"/>
<mask id="path-3-outside-2_108_1918" maskUnits="userSpaceOnUse" x="2.45117" y="1.82275" width="78" height="73" fill="black">
<rect fill="white" x="2.45117" y="1.82275" width="78" height="73"/>
<path fill-rule="evenodd" clip-rule="evenodd" d="M67.0498 61.7905C62.4949 61.1386 57.4773 60.6565 52.1452 60.3803C51.5948 59.4905 51.3196 58.3985 51.3196 57.1111V41.2874H59.3857V56.6336C59.3857 57.3157 59.5538 57.7249 60.2259 57.7249C60.8981 57.7249 61.1502 57.3157 61.1502 56.6336V43.47C61.1502 42.1059 60.8981 41.5603 59.7218 40.6054L55.2686 37.0587C52.5799 35.0126 51.5716 32.7618 51.5716 29.6243V18.0976C51.5716 14.2781 53.8402 11.8228 59.7218 11.8228H61.5703C67.5359 11.8228 69.3004 14.2781 69.3004 17.552V31.1931H61.4863V17.8248C61.4863 17.2792 61.2342 17.0064 60.646 17.0064C60.0579 17.0064 59.8058 17.2792 59.8058 17.8248V29.3515C59.8058 30.6474 60.0579 31.0567 61.0662 31.9433L65.4353 35.49C68.6282 37.809 69.6364 39.6505 69.6364 43.1972V56.2926C69.6364 58.698 68.7939 60.5905 67.0498 61.7905ZM20.5368 61.2383C18.3174 61.4885 16.1863 61.777 14.1578 62.1003C13.9208 62.138 13.6853 62.1763 13.4512 62.215L17.3463 12.1638H27.765L31.7542 60.3481C29.0759 60.478 26.4747 60.6596 23.9692 60.8886L23.5639 52.6095H20.9592L20.5368 61.2383ZM49.567 60.2638C46.9816 60.164 44.3302 60.1121 41.6288 60.1121C38.4652 60.1121 35.3701 60.1833 32.3692 60.3193V12.1638H44.0483C47.6613 12.1638 50.35 13.7325 50.35 17.8248V56.9747C50.35 58.2896 50.0715 59.386 49.567 60.2638ZM23.3118 46.8121L22.3036 25.3956L21.2953 46.8121H23.3118ZM40.4354 17.6202V57.3157H41.1916C41.9478 57.3157 42.1998 56.9065 42.1998 56.0198V18.8479C42.1998 18.0294 41.9478 17.6202 41.1916 17.6202H40.4354Z"/>
</mask>
<path fill-rule="evenodd" clip-rule="evenodd" d="M67.0498 61.7905C62.4949 61.1386 57.4773 60.6565 52.1452 60.3803C51.5948 59.4905 51.3196 58.3985 51.3196 57.1111V41.2874H59.3857V56.6336C59.3857 57.3157 59.5538 57.7249 60.2259 57.7249C60.8981 57.7249 61.1502 57.3157 61.1502 56.6336V43.47C61.1502 42.1059 60.8981 41.5603 59.7218 40.6054L55.2686 37.0587C52.5799 35.0126 51.5716 32.7618 51.5716 29.6243V18.0976C51.5716 14.2781 53.8402 11.8228 59.7218 11.8228H61.5703C67.5359 11.8228 69.3004 14.2781 69.3004 17.552V31.1931H61.4863V17.8248C61.4863 17.2792 61.2342 17.0064 60.646 17.0064C60.0579 17.0064 59.8058 17.2792 59.8058 17.8248V29.3515C59.8058 30.6474 60.0579 31.0567 61.0662 31.9433L65.4353 35.49C68.6282 37.809 69.6364 39.6505 69.6364 43.1972V56.2926C69.6364 58.698 68.7939 60.5905 67.0498 61.7905ZM20.5368 61.2383C18.3174 61.4885 16.1863 61.777 14.1578 62.1003C13.9208 62.138 13.6853 62.1763 13.4512 62.215L17.3463 12.1638H27.765L31.7542 60.3481C29.0759 60.478 26.4747 60.6596 23.9692 60.8886L23.5639 52.6095H20.9592L20.5368 61.2383ZM49.567 60.2638C46.9816 60.164 44.3302 60.1121 41.6288 60.1121C38.4652 60.1121 35.3701 60.1833 32.3692 60.3193V12.1638H44.0483C47.6613 12.1638 50.35 13.7325 50.35 17.8248V56.9747C50.35 58.2896 50.0715 59.386 49.567 60.2638ZM23.3118 46.8121L22.3036 25.3956L21.2953 46.8121H23.3118ZM40.4354 17.6202V57.3157H41.1916C41.9478 57.3157 42.1998 56.9065 42.1998 56.0198V18.8479C42.1998 18.0294 41.9478 17.6202 41.1916 17.6202H40.4354Z" fill="white"/>
<path d="M52.1452 60.3803L43.6408 65.641L46.3965 70.0959L51.6278 70.3669L52.1452 60.3803ZM67.0498 61.7905L65.633 71.6896L69.4999 72.243L72.718 70.0289L67.0498 61.7905ZM51.3196 41.2874V31.2874H41.3196V41.2874H51.3196ZM59.3857 41.2874H69.3857V31.2874H59.3857V41.2874ZM59.7218 40.6054L66.0242 32.8414L65.9881 32.8121L65.9517 32.7831L59.7218 40.6054ZM55.2686 37.0587L61.4985 29.2364L61.4123 29.1678L61.3246 29.101L55.2686 37.0587ZM69.3004 31.1931V41.1931H79.3004V31.1931H69.3004ZM61.4863 31.1931H51.4863V41.1931H61.4863V31.1931ZM61.0662 31.9433L54.4624 39.4527L54.6106 39.583L54.7637 39.7073L61.0662 31.9433ZM65.4353 35.49L59.1329 43.254L59.3414 43.4233L59.5587 43.5811L65.4353 35.49ZM14.1578 62.1003L12.584 52.2249L12.584 52.2249L14.1578 62.1003ZM20.5368 61.2383L21.6572 71.1754L30.109 70.2225L30.5249 61.7272L20.5368 61.2383ZM13.4512 62.215L3.48132 61.4391L2.49115 74.1626L15.0822 72.0811L13.4512 62.215ZM17.3463 12.1638V2.16378H8.09424L7.3764 11.3879L17.3463 12.1638ZM27.765 12.1638L37.7309 11.3387L36.9714 2.16378H27.765V12.1638ZM31.7542 60.3481L32.2385 70.3364L42.5738 69.8353L41.7201 59.523L31.7542 60.3481ZM23.9692 60.8886L13.9811 61.3775L14.4911 71.7964L24.8792 70.8471L23.9692 60.8886ZM23.5639 52.6095L33.552 52.1206L33.0864 42.6095H23.5639V52.6095ZM20.9592 52.6095V42.6095H11.4367L10.9712 52.1206L20.9592 52.6095ZM49.567 60.2638L49.1812 70.2564L55.2237 70.4897L58.237 65.2469L49.567 60.2638ZM32.3692 60.3193H22.3692V70.7828L32.822 70.309L32.3692 60.3193ZM32.3692 12.1638V2.16378H22.3692V12.1638H32.3692ZM22.3036 25.3956L32.2925 24.9253L12.3146 24.9253L22.3036 25.3956ZM23.3118 46.8121V56.8121H33.7937L33.3008 46.3418L23.3118 46.8121ZM21.2953 46.8121L11.3064 46.3418L10.8134 56.8121H21.2953V46.8121ZM40.4354 57.3157H30.4354V67.3157H40.4354V57.3157ZM40.4354 17.6202V7.6202H30.4354V17.6202H40.4354ZM51.6278 70.3669C56.6899 70.6292 61.4056 71.0846 65.633 71.6896L68.4665 51.8913C63.5842 51.1926 58.2648 50.6839 52.6626 50.3937L51.6278 70.3669ZM60.6496 55.1195C61.2823 56.1424 61.3196 56.9737 61.3196 57.1111H41.3196C41.3196 59.8233 41.9072 62.8385 43.6408 65.641L60.6496 55.1195ZM61.3196 57.1111V41.2874H41.3196V57.1111H61.3196ZM51.3196 51.2874H59.3857V31.2874H51.3196V51.2874ZM49.3857 41.2874V56.6336H69.3857V41.2874H49.3857ZM49.3857 56.6336C49.3857 57.291 49.3568 60.1896 51.2535 63.0124C53.7971 66.7977 57.7072 67.7249 60.2259 67.7249V47.7249C61.0284 47.7249 62.3635 47.8414 63.8731 48.5125C65.5036 49.2373 66.8804 50.4089 67.854 51.8577C68.7504 53.1918 69.0937 54.4419 69.2366 55.1728C69.3789 55.9007 69.3857 56.4465 69.3857 56.6336H49.3857ZM60.2259 67.7249C62.6957 67.7249 66.2552 66.8636 68.8101 63.6046C70.9752 60.8428 71.1502 57.8927 71.1502 56.6336H51.1502C51.1502 56.0567 51.1991 53.6522 53.0702 51.2655C55.3309 48.3816 58.4283 47.7249 60.2259 47.7249V67.7249ZM71.1502 56.6336V43.47H51.1502V56.6336H71.1502ZM71.1502 43.47C71.1502 42.3113 71.0836 39.9731 69.8472 37.4641C68.656 35.0468 66.9097 33.5602 66.0242 32.8414L53.4194 48.3694C53.7102 48.6054 52.6781 47.8691 51.907 46.3044C51.0908 44.6479 51.1502 43.2646 51.1502 43.47H71.1502ZM65.9517 32.7831L61.4985 29.2364L49.0387 44.881L53.4919 48.4277L65.9517 32.7831ZM61.3246 29.101C61.1136 28.9404 61.0766 28.8829 61.128 28.9424C61.1887 29.0128 61.3005 29.1627 61.4065 29.3809C61.5122 29.5983 61.5603 29.7772 61.5778 29.8648C61.5924 29.9379 61.5716 29.8777 61.5716 29.6243H41.5716C41.5716 32.283 42.0042 35.2123 43.4171 38.1206C44.8354 41.0399 46.9156 43.2683 49.2126 45.0164L61.3246 29.101ZM61.5716 29.6243V18.0976H41.5716V29.6243H61.5716ZM61.5716 18.0976C61.5716 18.111 61.5717 18.5422 61.3125 19.1953C61.0286 19.9104 60.534 20.6311 59.8638 21.1927C58.6193 22.2355 57.9254 21.8228 59.7218 21.8228V1.82275C55.6366 1.82275 50.8676 2.63774 47.0185 5.86305C42.8276 9.37474 41.5716 14.1488 41.5716 18.0976H61.5716ZM59.7218 21.8228H61.5703V1.82275H59.7218V21.8228ZM61.5703 21.8228C63.4602 21.8228 62.5616 22.2567 61.1432 21.0339C60.3847 20.3801 59.8585 19.5622 59.5667 18.7829C59.3028 18.0784 59.3004 17.5996 59.3004 17.552H79.3004C79.3004 14.1324 78.3223 9.43755 74.2017 5.88546C70.4096 2.61652 65.646 1.82275 61.5703 1.82275V21.8228ZM59.3004 17.552V31.1931H79.3004V17.552H59.3004ZM69.3004 21.1931H61.4863V41.1931H69.3004V21.1931ZM71.4863 31.1931V17.8248H51.4863V31.1931H71.4863ZM71.4863 17.8248C71.4863 16.206 71.126 12.9056 68.3545 10.1366C65.5885 7.37313 62.2892 7.00636 60.646 7.00636V27.0064C59.591 27.0064 56.7119 26.776 54.2189 24.2853C51.7205 21.7892 51.4863 18.898 51.4863 17.8248H71.4863ZM60.646 7.00636C59.0029 7.00636 55.7036 7.37313 52.9376 10.1366C50.1661 12.9056 49.8058 16.206 49.8058 17.8248H69.8058C69.8058 18.898 69.5716 21.7892 67.0732 24.2853C64.5802 26.776 61.701 27.0064 60.646 27.0064V7.00636ZM49.8058 17.8248V29.3515H69.8058V17.8248H49.8058ZM49.8058 29.3515C49.8058 30.5162 49.8807 32.8266 51.1278 35.3013C52.2657 37.5592 53.9241 38.9793 54.4624 39.4527L67.6699 24.4339C67.506 24.2898 67.6435 24.3983 67.8678 24.6469C68.1334 24.9412 68.5823 25.4956 68.988 26.3005C69.4069 27.1318 69.6205 27.9128 69.7228 28.5218C69.7698 28.8019 69.7892 29.0208 69.7977 29.1528C69.8021 29.2202 69.804 29.2715 69.8049 29.3033C69.8054 29.3195 69.8056 29.3318 69.8057 29.3396C69.8058 29.3436 69.8058 29.3466 69.8058 29.3486C69.8058 29.3505 69.8058 29.3515 69.8058 29.3515H49.8058ZM54.7637 39.7073L59.1329 43.254L71.7377 27.726L67.3686 24.1793L54.7637 39.7073ZM59.5587 43.5811C59.8073 43.7616 59.9848 43.9015 60.109 44.0055C60.2325 44.1091 60.2888 44.1652 60.2994 44.176C60.3084 44.1851 60.2677 44.1447 60.1998 44.0551C60.13 43.9631 60.043 43.8345 59.9546 43.6724C59.8657 43.5094 59.7916 43.3424 59.734 43.1815C59.6771 43.0226 59.6463 42.8976 59.631 42.8224C59.6162 42.7502 59.6182 42.7357 59.6234 42.7971C59.6289 42.8603 59.6364 42.9875 59.6364 43.1972H79.6364C79.6364 40.4793 79.253 37.2856 77.5118 34.094C75.8359 31.0221 73.431 28.938 71.3119 27.3989L59.5587 43.5811ZM59.6364 43.1972V56.2926H79.6364V43.1972H59.6364ZM59.6364 56.2926C59.6364 56.3416 59.628 55.927 59.9261 55.2844C60.2523 54.5816 60.7822 53.9644 61.3815 53.5521L72.718 70.0289C77.7605 66.5595 79.6364 61.2072 79.6364 56.2926H59.6364ZM15.7315 71.9757C17.5993 71.678 19.5788 71.4097 21.6572 71.1754L19.4165 51.3013C17.056 51.5674 14.7733 51.876 12.584 52.2249L15.7315 71.9757ZM15.0822 72.0811C15.2969 72.0456 15.5134 72.0104 15.7316 71.9757L12.584 52.2249C12.3283 52.2657 12.0736 52.307 11.8202 52.3489L15.0822 72.0811ZM7.3764 11.3879L3.48132 61.4391L23.421 62.9909L27.3161 12.9397L7.3764 11.3879ZM27.765 2.16378H17.3463V22.1638H27.765V2.16378ZM41.7201 59.523L37.7309 11.3387L17.7991 12.9889L21.7883 61.1732L41.7201 59.523ZM24.8792 70.8471C27.2381 70.6315 29.6973 70.4596 32.2385 70.3364L31.2699 50.3598C28.4545 50.4963 25.7113 50.6877 23.0591 50.9301L24.8792 70.8471ZM13.5759 53.0984L13.9811 61.3775L33.9572 60.3997L33.552 52.1206L13.5759 53.0984ZM20.9592 62.6095H23.5639V42.6095H20.9592V62.6095ZM30.5249 61.7272L30.9473 53.0984L10.9712 52.1206L10.5488 60.7494L30.5249 61.7272ZM41.6288 70.1121C44.2026 70.1121 46.7253 70.1615 49.1812 70.2564L49.9528 50.2713C47.2378 50.1664 44.4578 50.1121 41.6288 50.1121V70.1121ZM32.822 70.309C35.6703 70.1799 38.6145 70.1121 41.6288 70.1121V50.1121C38.3159 50.1121 35.0698 50.1866 31.9164 50.3295L32.822 70.309ZM22.3692 12.1638V60.3193H42.3692V12.1638H22.3692ZM44.0483 2.16378H32.3692V22.1638H44.0483V2.16378ZM60.35 17.8248C60.35 13.4171 58.7802 8.85087 54.8207 5.66685C51.2456 2.79187 47.0833 2.16378 44.0483 2.16378V22.1638C44.6264 22.1638 43.6148 22.32 42.2873 21.2525C41.5688 20.6747 41.0121 19.9262 40.6767 19.1407C40.3612 18.4017 40.35 17.8894 40.35 17.8248H60.35ZM60.35 56.9747V17.8248H40.35V56.9747H60.35ZM58.237 65.2469C59.7664 62.5859 60.35 59.7022 60.35 56.9747H40.35C40.35 56.8769 40.3767 56.186 40.897 55.2807L58.237 65.2469ZM12.3146 25.8659L13.3229 47.2823L33.3008 46.3418L32.2925 24.9253L12.3146 25.8659ZM31.2842 47.2823L32.2925 25.8659L12.3146 24.9253L11.3064 46.3418L31.2842 47.2823ZM23.3118 36.8121H21.2953V56.8121H23.3118V36.8121ZM50.4354 57.3157V17.6202H30.4354V57.3157H50.4354ZM41.1916 47.3157H40.4354V67.3157H41.1916V47.3157ZM32.1998 56.0198C32.1998 56.0145 32.0927 53.5522 33.9376 51.0563C36.3563 47.7838 39.774 47.3157 41.1916 47.3157V67.3157C43.3653 67.3157 47.2871 66.6429 50.021 62.9442C52.1809 60.022 52.1998 56.9118 52.1998 56.0198H32.1998ZM32.1998 18.8479V56.0198H52.1998V18.8479H32.1998ZM41.1916 27.6202C39.7916 27.6202 36.4748 27.1696 34.0558 24.0278C32.1288 21.525 32.1998 19.0134 32.1998 18.8479H52.1998C52.1998 17.864 52.1449 14.7385 49.9028 11.8265C47.1687 8.27542 43.3477 7.6202 41.1916 7.6202V27.6202ZM40.4354 27.6202H41.1916V7.6202H40.4354V27.6202Z" fill="white" mask="url(#path-3-outside-2_108_1918)"/>
<mask id="path-5-outside-3_108_1918" maskUnits="userSpaceOnUse" x="11.2979" y="10.5332" width="60" height="53" fill="black">
<rect fill="white" x="11.2979" y="10.5332" width="60" height="53"/>
<path fill-rule="evenodd" clip-rule="evenodd" d="M66.8964 61.5009C62.3416 60.849 57.324 60.367 51.9919 60.0907C51.4414 59.2009 51.1662 58.109 51.1662 56.8215V40.9979H59.2324V56.3441C59.2324 57.0261 59.4004 57.4354 60.0726 57.4354C60.7448 57.4354 60.9969 57.0261 60.9969 56.3441V43.1805C60.9969 41.8164 60.7448 41.2707 59.5685 40.3158L55.1153 36.7692C52.4266 34.723 51.4183 32.4722 51.4183 29.3348V17.8081C51.4183 13.9886 53.6869 11.5332 59.5685 11.5332H61.417C67.3826 11.5332 69.147 13.9886 69.147 17.2624V30.9035H61.3329V17.5353C61.3329 16.9896 61.0809 16.7168 60.4927 16.7168C59.9046 16.7168 59.6525 16.9896 59.6525 17.5353V29.062C59.6525 30.3579 59.9046 30.7671 60.9128 31.6538L65.282 35.2004C68.4749 37.5194 69.4831 39.361 69.4831 42.9076V56.0031C69.4831 58.4085 68.6406 60.3009 66.8964 61.5009ZM20.3835 60.9488C18.1641 61.199 16.0329 61.4875 14.0045 61.8107C13.7675 61.8485 13.532 61.8867 13.2979 61.9254L17.1929 11.8742H27.6117L31.6009 60.0586C28.9225 60.1884 26.3214 60.3701 23.8159 60.599L23.4106 52.32H20.8059L20.3835 60.9488ZM49.4137 59.9743C46.8282 59.8744 44.1768 59.8226 41.4755 59.8226C38.3119 59.8226 35.2168 59.8937 32.2159 60.0297V11.8742H43.895C47.508 11.8742 50.1967 13.443 50.1967 17.5353V56.6851C50.1967 58 49.9182 59.0964 49.4137 59.9743ZM23.1585 46.5225L22.1503 25.1061L21.142 46.5225H23.1585ZM40.282 17.3307V57.0261H41.0382C41.7944 57.0261 42.0465 56.6169 42.0465 55.7302V18.5583C42.0465 17.7399 41.7944 17.3307 41.0382 17.3307H40.282Z"/>
</mask>
<path fill-rule="evenodd" clip-rule="evenodd" d="M66.8964 61.5009C62.3416 60.849 57.324 60.367 51.9919 60.0907C51.4414 59.2009 51.1662 58.109 51.1662 56.8215V40.9979H59.2324V56.3441C59.2324 57.0261 59.4004 57.4354 60.0726 57.4354C60.7448 57.4354 60.9969 57.0261 60.9969 56.3441V43.1805C60.9969 41.8164 60.7448 41.2707 59.5685 40.3158L55.1153 36.7692C52.4266 34.723 51.4183 32.4722 51.4183 29.3348V17.8081C51.4183 13.9886 53.6869 11.5332 59.5685 11.5332H61.417C67.3826 11.5332 69.147 13.9886 69.147 17.2624V30.9035H61.3329V17.5353C61.3329 16.9896 61.0809 16.7168 60.4927 16.7168C59.9046 16.7168 59.6525 16.9896 59.6525 17.5353V29.062C59.6525 30.3579 59.9046 30.7671 60.9128 31.6538L65.282 35.2004C68.4749 37.5194 69.4831 39.361 69.4831 42.9076V56.0031C69.4831 58.4085 68.6406 60.3009 66.8964 61.5009ZM20.3835 60.9488C18.1641 61.199 16.0329 61.4875 14.0045 61.8107C13.7675 61.8485 13.532 61.8867 13.2979 61.9254L17.1929 11.8742H27.6117L31.6009 60.0586C28.9225 60.1884 26.3214 60.3701 23.8159 60.599L23.4106 52.32H20.8059L20.3835 60.9488ZM49.4137 59.9743C46.8282 59.8744 44.1768 59.8226 41.4755 59.8226C38.3119 59.8226 35.2168 59.8937 32.2159 60.0297V11.8742H43.895C47.508 11.8742 50.1967 13.443 50.1967 17.5353V56.6851C50.1967 58 49.9182 59.0964 49.4137 59.9743ZM23.1585 46.5225L22.1503 25.1061L21.142 46.5225H23.1585ZM40.282 17.3307V57.0261H41.0382C41.7944 57.0261 42.0465 56.6169 42.0465 55.7302V18.5583C42.0465 17.7399 41.7944 17.3307 41.0382 17.3307H40.282Z" fill="#125740"/>
<path d="M51.9919 60.0907L51.1414 60.6168L51.417 61.0623L51.9401 61.0894L51.9919 60.0907ZM66.8964 61.5009L66.7548 62.4908L67.1415 62.5462L67.4633 62.3248L66.8964 61.5009ZM51.1662 40.9979V39.9979H50.1662V40.9979H51.1662ZM59.2324 40.9979H60.2324V39.9979H59.2324V40.9979ZM59.5685 40.3158L60.1987 39.5394L60.1915 39.5336L59.5685 40.3158ZM55.1153 36.7692L55.7383 35.9869L55.7297 35.9801L55.7209 35.9734L55.1153 36.7692ZM69.147 30.9035V31.9035H70.147V30.9035H69.147ZM61.3329 30.9035H60.3329V31.9035H61.3329V30.9035ZM60.9128 31.6538L60.2525 32.4047L60.2673 32.4177L60.2826 32.4302L60.9128 31.6538ZM65.282 35.2004L64.6518 35.9768L64.6726 35.9938L64.6943 36.0096L65.282 35.2004ZM14.0045 61.8107L13.8471 60.8232L13.8471 60.8232L14.0045 61.8107ZM20.3835 60.9488L20.4956 61.9425L21.3407 61.8472L21.3823 60.9977L20.3835 60.9488ZM13.2979 61.9254L12.3009 61.8478L12.2018 63.1202L13.461 62.912L13.2979 61.9254ZM17.1929 11.8742V10.8742H16.2677L16.1959 11.7966L17.1929 11.8742ZM27.6117 11.8742L28.6083 11.7917L28.5324 10.8742H27.6117V11.8742ZM31.6009 60.0586L31.6493 61.0574L32.6828 61.0073L32.5975 59.976L31.6009 60.0586ZM23.8159 60.599L22.817 60.6479L22.868 61.6898L23.9069 61.5949L23.8159 60.599ZM23.4106 52.32L24.4094 52.2711L24.3628 51.32H23.4106V52.32ZM20.8059 52.32V51.32H19.8537L19.8071 52.2711L20.8059 52.32ZM49.4137 59.9743L49.3751 60.9735L49.9793 60.9968L50.2807 60.4726L49.4137 59.9743ZM32.2159 60.0297H31.2159V61.0761L32.2612 61.0287L32.2159 60.0297ZM32.2159 11.8742V10.8742H31.2159V11.8742H32.2159ZM22.1503 25.1061L23.1492 25.059L21.1514 25.059L22.1503 25.1061ZM23.1585 46.5225V47.5225H24.2067L24.1574 46.4755L23.1585 46.5225ZM21.142 46.5225L20.1431 46.4755L20.0938 47.5225H21.142V46.5225ZM40.282 57.0261H39.282V58.0261H40.282V57.0261ZM40.282 17.3307V16.3307H39.282V17.3307H40.282ZM51.9401 61.0894C57.2453 61.3643 62.2327 61.8436 66.7548 62.4908L67.0381 60.511C62.4506 59.8544 57.4028 59.3697 52.0436 59.0921L51.9401 61.0894ZM52.8423 59.5647C52.4102 58.8661 52.1662 57.9665 52.1662 56.8215H50.1662C50.1662 58.2515 50.4727 59.5357 51.1414 60.6168L52.8423 59.5647ZM52.1662 56.8215V40.9979H50.1662V56.8215H52.1662ZM51.1662 41.9979H59.2324V39.9979H51.1662V41.9979ZM58.2324 40.9979V56.3441H60.2324V40.9979H58.2324ZM58.2324 56.3441C58.2324 56.7167 58.2673 57.2521 58.5704 57.7032C58.9382 58.2506 59.5183 58.4354 60.0726 58.4354V56.4354C60.0016 56.4354 60.0122 56.424 60.064 56.447C60.0911 56.4591 60.1234 56.478 60.1559 56.5053C60.1883 56.5327 60.213 56.5618 60.2305 56.5878C60.2634 56.6368 60.2599 56.6582 60.2506 56.6104C60.2412 56.5624 60.2324 56.4788 60.2324 56.3441H58.2324ZM60.0726 58.4354C60.6221 58.4354 61.186 58.2572 61.5738 57.7625C61.9226 57.3175 61.9969 56.7769 61.9969 56.3441H59.9969C59.9969 56.4568 59.9861 56.5235 59.9778 56.556C59.97 56.5865 59.9697 56.567 59.9998 56.5285C60.0149 56.5093 60.0344 56.4896 60.0575 56.4721C60.0805 56.4547 60.1017 56.4436 60.1174 56.4371C60.1475 56.4246 60.1416 56.4354 60.0726 56.4354V58.4354ZM61.9969 56.3441V43.1805H59.9969V56.3441H61.9969ZM61.9969 43.1805C61.9969 42.4508 61.9335 41.7872 61.6208 41.1527C61.3126 40.5273 60.8166 40.041 60.1987 39.5394L58.9382 41.0922C59.4967 41.5455 59.7148 41.8095 59.8268 42.0367C59.9342 42.2547 59.9969 42.5461 59.9969 43.1805H61.9969ZM60.1915 39.5336L55.7383 35.9869L54.4923 37.5514L58.9455 41.0981L60.1915 39.5336ZM55.7209 35.9734C54.4718 35.0228 53.6631 34.064 53.158 33.0242C52.6523 31.9833 52.4183 30.7945 52.4183 29.3348H50.4183C50.4183 31.0125 50.6884 32.5178 51.3591 33.8982C52.0302 35.2797 53.0701 36.4694 54.5097 37.5649L55.7209 35.9734ZM52.4183 29.3348V17.8081H50.4183V29.3348H52.4183ZM52.4183 17.8081C52.4183 16.1023 52.9166 14.8541 53.9301 14.0048C54.9777 13.1269 56.7421 12.5332 59.5685 12.5332V10.5332C56.5133 10.5332 54.2026 11.1672 52.6455 12.4719C51.0543 13.8052 50.4183 15.6944 50.4183 17.8081H52.4183ZM59.5685 12.5332H61.417V10.5332H59.5685V12.5332ZM61.417 12.5332C64.2905 12.5332 65.9399 13.1291 66.8662 13.9276C67.7596 14.6977 68.147 15.8038 68.147 17.2624H70.147C70.147 15.4473 69.6522 13.6887 68.172 12.4127C66.7247 11.165 64.5091 10.5332 61.417 10.5332V12.5332ZM68.147 17.2624V30.9035H70.147V17.2624H68.147ZM69.147 29.9035H61.3329V31.9035H69.147V29.9035ZM62.3329 30.9035V17.5353H60.3329V30.9035H62.3329ZM62.3329 17.5353C62.3329 17.1278 62.2402 16.6137 61.8402 16.214C61.4407 15.8149 60.9217 15.7168 60.4927 15.7168V17.7168C60.5664 17.7168 60.5843 17.7258 60.5668 17.7202C60.5433 17.7127 60.4858 17.688 60.4266 17.6289C60.3674 17.5697 60.3411 17.5106 60.3322 17.4827C60.3251 17.4608 60.3329 17.4719 60.3329 17.5353H62.3329ZM60.4927 15.7168C60.0637 15.7168 59.5448 15.8149 59.1453 16.214C58.7452 16.6137 58.6525 17.1278 58.6525 17.5353H60.6525C60.6525 17.4719 60.6603 17.4608 60.6533 17.4827C60.6443 17.5106 60.6181 17.5697 60.5588 17.6289C60.4997 17.688 60.4421 17.7127 60.4187 17.7202C60.4011 17.7258 60.419 17.7168 60.4927 17.7168V15.7168ZM58.6525 17.5353V29.062H60.6525V17.5353H58.6525ZM58.6525 29.062C58.6525 29.7616 58.7167 30.3763 59.0116 30.9614C59.2955 31.5248 59.7449 31.9584 60.2525 32.4047L61.5732 30.9028C61.0725 30.4625 60.8917 30.2481 60.7976 30.0613C60.7143 29.8961 60.6525 29.6582 60.6525 29.062H58.6525ZM60.2826 32.4302L64.6518 35.9768L65.9122 34.424L61.5431 30.8774L60.2826 32.4302ZM64.6943 36.0096C66.2385 37.1311 67.1533 38.0668 67.702 39.0726C68.2442 40.0664 68.4831 41.2288 68.4831 42.9076H70.4831C70.4831 41.0398 70.2179 39.5081 69.4577 38.1147C68.7041 36.7333 67.5184 35.5888 65.8697 34.3913L64.6943 36.0096ZM68.4831 42.9076V56.0031H70.4831V42.9076H68.4831ZM68.4831 56.0031C68.4831 58.1576 67.7439 59.704 66.3296 60.6771L67.4633 62.3248C69.5372 60.8978 70.4831 58.6594 70.4831 56.0031H68.4831ZM14.1618 62.7983C16.1742 62.4776 18.2902 62.1911 20.4956 61.9425L20.2715 59.9551C18.038 60.2069 15.8916 60.4974 13.8471 60.8232L14.1618 62.7983ZM13.461 62.912C13.6931 62.8737 13.9268 62.8357 14.1618 62.7983L13.8471 60.8232C13.6083 60.8613 13.3708 60.8998 13.1347 60.9388L13.461 62.912ZM16.1959 11.7966L12.3009 61.8478L14.2948 62.003L18.1899 11.9518L16.1959 11.7966ZM27.6117 10.8742H17.1929V12.8742H27.6117V10.8742ZM32.5975 59.976L28.6083 11.7917L26.6151 11.9567L30.6043 60.1411L32.5975 59.976ZM23.9069 61.5949C26.3977 61.3673 28.9847 61.1866 31.6493 61.0574L31.5524 59.0597C28.8604 59.1902 26.245 59.3729 23.7249 59.6032L23.9069 61.5949ZM22.4118 52.3689L22.817 60.6479L24.8147 60.5501L24.4094 52.2711L22.4118 52.3689ZM20.8059 53.32H23.4106V51.32H20.8059V53.32ZM21.3823 60.9977L21.8047 52.3689L19.8071 52.2711L19.3847 60.8999L21.3823 60.9977ZM41.4755 60.8226C44.1641 60.8226 46.8026 60.8742 49.3751 60.9735L49.4522 58.975C46.8539 58.8747 44.1896 58.8226 41.4755 58.8226V60.8226ZM32.2612 61.0287C35.2468 60.8934 38.3268 60.8226 41.4755 60.8226V58.8226C38.2969 58.8226 35.1867 58.894 32.1706 59.0307L32.2612 61.0287ZM31.2159 11.8742V60.0297H33.2159V11.8742H31.2159ZM43.895 10.8742H32.2159V12.8742H43.895V10.8742ZM51.1967 17.5353C51.1967 15.253 50.4347 13.5226 49.0274 12.3908C47.6585 11.29 45.8243 10.8742 43.895 10.8742V12.8742C45.5786 12.8742 46.8954 13.2428 47.774 13.9494C48.6143 14.6251 49.1967 15.7253 49.1967 17.5353H51.1967ZM51.1967 56.6851V17.5353H49.1967V56.6851H51.1967ZM50.2807 60.4726C50.8877 59.4164 51.1967 58.1413 51.1967 56.6851H49.1967C49.1967 57.8588 48.9487 58.7764 48.5467 59.476L50.2807 60.4726ZM21.1514 25.1531L22.1596 46.5696L24.1574 46.4755L23.1492 25.059L21.1514 25.1531ZM22.1409 46.5696L23.1492 25.1531L21.1514 25.059L20.1431 46.4755L22.1409 46.5696ZM23.1585 45.5225H21.142V47.5225H23.1585V45.5225ZM41.282 57.0261V17.3307H39.282V57.0261H41.282ZM41.0382 56.0261H40.282V58.0261H41.0382V56.0261ZM41.0465 55.7302C41.0465 55.91 41.0332 56.025 41.0181 56.0944C41.0034 56.1622 40.9939 56.1541 41.0218 56.1163C41.0364 56.0966 41.0566 56.0751 41.0818 56.0558C41.1068 56.0367 41.1287 56.0258 41.142 56.0204C41.1648 56.0113 41.1425 56.0261 41.0382 56.0261V58.0261C41.5959 58.0261 42.215 57.8668 42.6301 57.3051C42.9879 56.821 43.0465 56.2184 43.0465 55.7302H41.0465ZM41.0465 18.5583V55.7302H43.0465V18.5583H41.0465ZM41.0382 18.3307C41.142 18.3307 41.1675 18.3453 41.1486 18.3379C41.1374 18.3335 41.1173 18.3239 41.0936 18.3063C41.0696 18.2885 41.0492 18.2679 41.0336 18.2476C41.0029 18.2078 41.0087 18.1931 41.021 18.2463C41.0338 18.3018 41.0465 18.3998 41.0465 18.5583H43.0465C43.0465 18.0916 42.9843 17.5029 42.6183 17.0275C42.2031 16.4883 41.5941 16.3307 41.0382 16.3307V18.3307ZM40.282 18.3307H41.0382V16.3307H40.282V18.3307Z" fill="black" mask="url(#path-5-outside-3_108_1918)"/>
<mask id="mask0_108_1918" style="mask-type:alpha" maskUnits="userSpaceOnUse" x="28" y="8" width="61" height="65">
<path d="M84.9645 26.9125C84.9645 26.9125 91.9858 33.0299 86.2144 40.3745C82.1797 45.5087 74.0416 58.4789 70.5001 64.8184C66.5776 71.8395 36.0358 69.4237 31.9287 72.0807C31.9287 72.0807 28.0001 12.3878 28.0001 11.8565C28.0001 11.8565 53.1267 -1.66743 84.9645 26.9125Z" fill="black"/>
</mask>
<g mask="url(#mask0_108_1918)">
<path d="M68.9973 42.1794C68.9973 42.1794 69.9059 40.2046 69.4965 37.7824C69.4965 37.7824 67.7707 37.1542 64.6353 37.7824C64.6353 37.7824 63.1353 41.1011 61.2259 42.7166C61.2259 42.7166 62.6816 39.3514 61.8161 36.84C61.8161 36.84 64.4523 35.8082 67.6808 36.0323C70.9065 36.2563 71.6321 36.9304 71.6321 36.9304C71.6321 36.9304 70.8152 40.7435 68.9973 42.1794ZM66.9142 49.1316C68.4142 48.049 68.2545 45.9273 68.2545 45.9273C68.6179 46.7674 68.8214 47.89 68.6179 48.6919C68.4144 49.492 67.8885 50.2937 65.6966 50.4924C63.5054 50.694 62.2478 50.0121 62.2478 50.0121C63.223 49.0516 64.1689 46.4481 64.1689 46.4481C64.6566 48.2926 64.2422 49.1458 64.2422 49.1458C65.2973 49.4651 66.9142 49.1316 66.9142 49.1316ZM70.3657 48.7811C70.8939 52.5883 67.4651 54.1863 65.56 54.1863C63.6539 54.1863 61.0339 53.3873 60.0342 50.1908C59.0345 46.9932 59.0345 43.0437 60.32 41.1159C60.32 41.1159 59.464 44.9242 59.9395 47.0879C60.4155 49.2504 61.3203 51.084 63.0821 51.4142C64.8449 51.7422 67.4651 51.6485 68.4165 50.5659C69.3705 49.4844 69.7505 47.9335 68.7987 45.8167C67.8451 43.7024 65.9406 40.974 69.0872 38.249C69.0872 38.249 67.7037 39.893 68.2273 42.2922C68.7504 44.6893 69.836 44.9751 70.3657 48.7811ZM58.0573 33.035C50.8806 32.0602 44.9937 33.5076 44.9937 33.5076C50.7747 31.6682 56.0309 31.8981 58.6219 32.1911C58.3795 32.4847 58.1933 32.7672 58.0573 33.035ZM57.7205 34.7974C50.7064 34.3177 45.144 36.0152 45.144 36.0152C50.2016 34.0947 54.935 33.8416 57.747 33.9189C57.6899 34.2083 57.681 34.505 57.7205 34.7974ZM45.9062 44.8114C43.2285 41.5683 44.3557 37.2343 44.3557 37.2343C44.3557 37.2343 44.4561 40.9518 47.7417 44.2358C51.0286 47.5211 55.1075 48.4098 55.1075 48.4098C55.1075 48.4098 48.5845 48.0566 45.9062 44.8114ZM60.3177 30.6939C59.9488 30.9469 59.631 31.195 59.3542 31.4403C51.6739 29.6491 44.9571 30.9185 44.9571 30.9185C53.2742 28.7646 60.3177 30.6939 60.3177 30.6939ZM54.3283 26.7253L54.3299 26.7237L54.3321 26.7226C54.4475 26.6739 56.7853 25.7095 59.1717 26.2451C61.6197 26.7954 63.1385 28.4334 63.1385 28.4334C63.1385 28.4334 60.9401 27.7828 56.8661 27.8545C56.8661 27.8545 56.7057 27.5616 57.1251 26.9482C57.1251 26.9482 56.4721 26.7599 54.3275 26.7253H54.3283ZM72.3557 27.3955C73.6083 27.1468 74.7515 27.7826 75.2886 28.2772C75.2886 28.2772 72.3923 27.7482 71.0349 28.9831C71.0349 28.9831 71.1064 27.6414 72.3557 27.3955ZM86.1592 36.828C83.3289 35.3039 80.1192 34.8302 77.6568 34.7354C77.6568 34.7354 76.6549 34.7534 76.5001 34.7492C76.5507 34.3445 76.5379 33.9819 76.4729 33.6615C77.0843 33.6435 77.8581 33.6193 77.9713 33.6138L78.0645 33.6082C82.9989 33.4488 85.6078 34.7364 85.6078 34.7364L85.3576 34.5485C82.9544 33.4488 80.4115 33.0464 78.212 32.9849H78.1238C78.1238 32.9849 77.0614 32.9834 76.2533 32.998C76.032 32.537 75.7085 32.1892 75.3824 31.935C76.4214 31.929 77.6253 31.9323 78.3185 31.963L78.3691 31.9646C82.1657 32.0041 84.2366 32.8922 84.2366 32.8922L83.9875 32.6988C82.1041 31.9053 80.1798 31.546 78.3758 31.4272C78.3758 31.4272 76.0237 31.3029 74.2104 31.3133C74.7357 31.7059 75.1374 32.2711 75.1761 33.0832C75.2993 35.5848 72.6825 36.593 72.6825 36.593C73.2973 36.1889 74.4 34.8187 74.1149 33.0421C73.8275 31.2678 71.4987 30.4244 71.4987 30.4244C71.4987 30.4244 68.771 31.5914 68.1792 33.7885C68.1792 33.7885 68.2253 31.5016 64.3614 30.0202C64.3614 30.0202 66.1793 29.4824 68.1347 29.6161C70.0885 29.7519 71.4987 30.4244 71.4987 30.4244C71.4987 30.4244 71.8587 29.4841 73.7758 29.1626C75.6947 28.8411 77.7688 29.3045 77.7688 29.3045C77.3861 28.6145 76.9449 27.6079 75.0161 26.8302C73.0889 26.0525 71.3598 26.7563 71.3598 26.7563C71.3598 26.7563 71.2344 25.8373 69.8333 24.9424C67.5561 23.4885 61.5339 22.622 60.3723 22.5596C59.2129 22.4994 61.2432 23.2371 62.0565 23.6955C62.9813 24.2151 64.0158 25.0985 64.1046 25.937C64.1273 26.1627 64.0736 26.3587 63.9715 26.5224C63.8894 26.2881 63.7181 25.9885 63.4168 25.6062C61.767 23.5147 57.5832 22.61 54.4429 22.8165C51.303 23.0235 48.8078 24.196 48.8078 24.196C48.8438 24.4825 47.6501 25.4818 44.3571 25.8406C41.2195 26.1802 39.0049 25.6139 38.2085 25.4973L38.148 25.4858C37.8251 25.4463 37.5827 25.4607 37.4813 25.6901L37.4707 25.7218L37.464 25.7645C37.4501 25.9244 37.5494 26.1451 37.5494 26.1451L37.5033 26.0581C37.7269 26.4813 39.0616 28.9107 40.8206 30.1577C40.8206 30.1577 41.8718 29.9376 43.1189 29.805C43.1189 29.805 23.8451 39.0656 16.0366 53.5341C19.4389 53.1397 23.9155 52.8857 28.775 53.3085L28.7422 53.3052H28.7395C29.4413 52.1397 32.9627 45.6322 41.3371 41.634C41.3371 41.634 35.1451 45.8837 32.9445 53.8354C35.7441 54.3042 38.6038 55.0315 41.4041 56.1076C50.4048 59.5703 57.9918 63.1907 66.5448 63.1162L67.9987 63.0531L67.996 63.0465C65.7238 58.3713 63.487 56.2345 63.487 56.2345C65.1784 56.534 66.5448 56.0581 66.5697 56.0499C66.6968 56.0044 66.8065 55.9596 66.8987 55.918C69.6963 54.429 70.1627 51.9088 70.3925 50.1033C70.6553 48.0156 70.2805 46.6805 70.2805 46.6805C70.2805 46.6805 75.1233 40.4046 76.3526 35.4682C76.3526 35.4682 76.9728 35.3845 77.4499 35.3943C83.2208 35.4584 86.3745 37.0416 86.3745 37.0416L86.1593 36.8275L86.1592 36.828ZM79.9139 26.1468C79.9317 26.1069 79.9456 26.0696 79.9566 26.0329L79.9821 25.9415L79.9816 25.937C79.8701 25.6232 79.6493 25.6002 79.1822 25.6364C78.5742 25.7502 77.9613 25.8372 77.3454 25.8971H77.3465L77.26 25.9064L77.1984 25.9119L76.9693 25.9328L76.9365 25.9339C76.2552 25.9892 75.8237 25.9919 75.8237 25.9919C77.5649 27.2919 77.7686 29.3051 77.7686 29.3051L77.8579 29.2301C79.1942 28.2723 79.9139 26.1468 79.9139 26.1468Z" fill="#EBF855"/>
<path d="M61.8164 36.8402C62.6818 39.3516 61.2261 42.7169 61.2261 42.7169C63.1356 41.1013 64.6356 37.7827 64.6356 37.7827C67.7709 37.1545 69.4967 37.7827 69.4967 37.7827C69.9061 40.2048 68.9975 42.1797 68.9975 42.1797C70.8154 40.7438 71.6325 36.9306 71.6325 36.9306C71.6325 36.9306 70.9069 36.2564 67.6812 36.0325C64.4525 35.8085 61.8165 36.8402 61.8165 36.8402H61.8164ZM72.3559 27.3958C71.1066 27.6416 71.0351 28.9833 71.0351 28.9833C72.3925 27.7484 75.2888 28.2774 75.2888 28.2774C74.7519 27.7829 73.6085 27.1471 72.3559 27.3958ZM66.9144 49.132C66.9144 49.132 65.2973 49.4655 64.2423 49.1462C64.2423 49.1462 64.6567 48.293 64.169 46.4485C64.169 46.4485 63.2232 49.052 62.2479 50.0125C62.2479 50.0125 63.5055 50.6943 65.6967 50.4928C67.8885 50.2941 68.4143 49.4924 68.618 48.6923C68.8215 47.8906 68.618 46.7678 68.2546 45.9277C68.2546 45.9277 68.4144 48.0492 66.9143 49.132H66.9144ZM59.172 26.2452C56.7856 25.7096 54.4479 26.674 54.3325 26.7227C54.4456 26.675 56.678 25.7549 59.0056 26.2106C57.6831 25.963 57.1256 26.9483 57.1256 26.9483C56.7063 27.5617 56.8666 27.8546 56.8666 27.8546C60.9405 27.7829 63.1391 28.4335 63.1391 28.4335C63.1391 28.4335 61.62 26.7955 59.172 26.2452Z" fill="#EBF855"/>
<path d="M72.3559 27.3958C71.1066 27.6416 71.0351 28.9833 71.0351 28.9833C72.3925 27.7484 75.2888 28.2774 75.2888 28.2774C74.7519 27.7829 73.6085 27.1471 72.3559 27.3958ZM59.172 26.2452C56.7856 25.7096 54.4479 26.674 54.3325 26.7227C54.4456 26.675 56.678 25.7549 59.0056 26.2106C57.6831 25.963 57.1256 26.9483 57.1256 26.9483C56.7063 27.5617 56.8666 27.8546 56.8666 27.8546C60.9405 27.7829 63.1391 28.4335 63.1391 28.4335C63.1391 28.4335 61.62 26.7955 59.172 26.2452Z" fill="#EBF855"/>
<path d="M76.3524 35.4689C75.1231 40.4053 70.2803 46.6812 70.2803 46.6812L70.2825 46.679C73.9427 43.5964 76.3823 38.1442 77.4497 35.395C76.9726 35.3852 76.3524 35.4689 76.3524 35.4689ZM76.4999 34.7494C76.6547 34.7538 77.6566 34.7356 77.6566 34.7356C77.7492 34.4279 77.8623 34.0357 77.9711 33.6142C77.858 33.6197 77.0841 33.6437 76.4727 33.6619C76.5377 33.9823 76.5503 34.3446 76.4999 34.7494ZM68.2271 42.2925C67.7035 39.8932 69.087 38.2493 69.087 38.2493C65.9406 40.9743 67.8449 43.7026 68.7985 45.817C69.7505 47.9335 69.3705 49.4845 68.4163 50.5661C67.4649 51.6488 64.8449 51.7425 63.0819 51.4144C61.3199 51.0842 60.4153 49.2508 59.9393 47.0881C59.4639 44.9244 60.3198 41.1162 60.3198 41.1162C59.0345 43.0438 59.0345 46.9934 60.034 50.1911C61.0337 53.3875 63.6537 54.1866 65.5598 54.1866C67.4647 54.1866 70.8935 52.5885 70.3655 48.7814C69.8358 44.9753 68.7503 44.6895 68.2271 42.2925ZM80.0131 25.6892L80.0063 25.6273L80.0014 25.5955L79.9843 25.5418L79.9737 25.5138L79.951 25.4672L79.9388 25.4448L79.9089 25.4032L79.8923 25.3852L79.8595 25.3512L79.8423 25.3359L79.8041 25.3075L79.7859 25.2948L79.7465 25.2735L79.7283 25.2631L79.6883 25.2455L79.6711 25.2373L79.6334 25.2242L79.6167 25.2193L79.5801 25.2095L79.5679 25.2057L79.5342 25.1997L79.5243 25.1975L79.4982 25.1942L79.4921 25.1926L79.4627 25.1893C77.0574 25.215 75.0825 24.4094 75.0825 24.4094L74.9206 24.3519C69.5735 22.4203 64.0239 21.8673 59.0828 21.956L59.0812 21.9511C56.8745 21.9713 55.2635 22.1494 55.2635 22.1494C48.1689 22.7414 43.0831 24.4198 43.0831 24.4198C43.0831 24.4198 41.1521 24.9566 38.5814 24.83C38.5814 24.83 37.6267 24.8136 37.438 25.4138C37.2766 25.796 37.2543 26.2506 37.6177 27.2457C38.0371 28.3935 39.7147 30.5512 39.7273 30.5671C34.6531 32.6022 21.4387 39.9192 9.6001 54.632C9.6001 54.632 12.102 53.9902 16.0367 53.5351C23.8452 39.0666 43.119 29.806 43.119 29.806C41.8719 29.9386 40.8207 30.1587 40.8207 30.1587C39.0617 28.9118 37.727 26.4824 37.5035 26.0591L37.5495 26.1461C37.5495 26.1461 37.4502 25.9254 37.4641 25.7655L37.4708 25.7229L37.4814 25.6911C37.5828 25.4617 37.8254 25.4475 38.1481 25.4868L38.2086 25.4983C39.0052 25.6149 41.2196 26.1812 44.3572 25.8417C47.6502 25.483 48.8439 24.4835 48.8079 24.197C48.8079 24.197 51.3031 23.0245 54.443 22.8176C57.5833 22.611 61.7671 23.5158 63.4169 25.6072C63.7182 25.9894 63.8895 26.289 63.9716 26.5234C64.0737 26.3598 64.1275 26.1637 64.1047 25.9381C64.0159 25.0995 62.9814 24.2163 62.0566 23.6965C61.2433 23.2381 59.2131 22.5004 60.3724 22.5606C61.534 22.6231 67.5563 23.4894 69.8334 24.9434C71.2347 25.8384 71.3599 26.7573 71.3599 26.7573C71.3599 26.7573 73.0891 26.0535 75.0163 26.8312C76.9451 27.6089 77.386 28.6154 77.7689 29.3055C77.7689 29.3055 77.5654 27.2924 75.8239 25.9922C75.8239 25.9922 76.2555 25.9896 76.9367 25.9343L76.9695 25.9332L77.1987 25.9123L77.2603 25.9068L77.3468 25.8974H77.3457C77.875 25.8459 78.5028 25.7644 79.1825 25.6367C79.6495 25.6006 79.8703 25.6236 79.9819 25.9374L79.9823 25.9418L79.9569 26.0333C79.9451 26.0721 79.9308 26.1102 79.9142 26.1472C79.9142 26.1472 79.1947 28.2727 77.8583 29.2305L77.7691 29.3055C77.7691 29.3055 75.6948 28.8422 73.7761 29.1636C71.859 29.4851 71.499 30.4254 71.499 30.4254C71.499 30.4254 73.8278 31.2688 74.1151 33.0432C74.4003 34.8197 73.2974 36.1899 72.6828 36.594C72.6828 36.594 75.2995 35.5858 75.1764 33.0842C75.1375 32.2721 74.7359 31.7069 74.2107 31.3143C76.0241 31.3039 78.3761 31.4282 78.3761 31.4282C78.3871 30.7354 78.2707 30.1649 78.0033 29.6708C79.3951 28.4781 79.9094 26.6611 79.9827 25.9447L79.9838 25.9436V25.942C79.9905 25.9178 80.0031 25.8527 80.0054 25.8385L80.0092 25.7974C80.0123 25.7738 80.0138 25.75 80.0137 25.7262V25.6895L80.0131 25.6892ZM64.3612 30.0209C68.2249 31.5023 68.179 33.7892 68.179 33.7892C68.7708 31.5921 71.4985 30.4251 71.4985 30.4251C71.4985 30.4251 70.0884 29.7526 68.1345 29.6168C66.179 29.4831 64.3612 30.0209 64.3612 30.0209ZM75.3822 31.9354C75.7084 32.1895 76.0318 32.5372 76.2531 32.9984C77.0614 32.9836 78.1236 32.9853 78.1236 32.9853C78.2001 32.648 78.2678 32.3085 78.3145 31.9909L78.3183 31.9635C77.6249 31.9329 76.4211 31.9296 75.3822 31.9356V31.9354ZM66.5697 56.0505C66.5447 56.0587 65.1783 56.5346 63.487 56.235C63.487 56.235 65.7236 58.372 67.9959 63.047L67.9987 63.0537L68.0875 63.0481C67.8678 60.9174 66.9463 57.3489 66.7334 56.689L66.5697 56.0505ZM47.7419 44.2357C44.4561 40.9515 44.3558 37.2343 44.3558 37.2343C44.3558 37.2343 43.2286 41.5682 45.9063 44.8113C48.5846 48.0566 55.1078 48.4098 55.1078 48.4098C55.1078 48.4098 51.0287 47.521 47.742 44.2357H47.7419ZM28.7393 53.3057H28.742L28.7748 53.309C28.8974 53.3195 29.2895 53.3556 29.3113 53.3588C29.3646 53.3632 30.038 53.4327 30.0441 53.4332C31.0145 53.54 31.9816 53.6743 32.9443 53.8358C35.1449 45.8841 41.3369 41.6344 41.3369 41.6344C32.9627 45.6328 29.4411 52.1403 28.7393 53.3055V53.3057ZM44.9571 30.9184C44.9571 30.9184 51.6739 29.649 59.3542 31.4402C59.631 31.1949 59.9489 30.9468 60.3177 30.6938C60.3177 30.6938 53.2742 28.7645 44.9571 30.9184ZM44.9937 33.5075C44.9937 33.5075 50.8806 32.0601 58.0572 33.0349C58.1931 32.7671 58.3795 32.4846 58.622 32.1911C56.0308 31.8981 50.7745 31.6681 44.9937 33.5075ZM59.0052 26.2103C56.6775 25.7546 54.4452 26.6746 54.3321 26.7224L54.3299 26.7235L54.3283 26.725H54.3278C56.4724 26.7595 57.1254 26.948 57.1254 26.948C57.1254 26.948 57.6828 25.9629 59.0054 26.2103H59.0052ZM45.1439 36.0151C45.1439 36.0151 50.7063 34.3174 57.7204 34.7973C57.6809 34.505 57.6899 34.2082 57.747 33.9188C54.935 33.8415 50.2014 34.0946 45.1439 36.0151Z" fill="#EBF855"/>
<path fill-rule="evenodd" clip-rule="evenodd" d="M63.3877 28.6751L63.3755 28.6677L63.3756 28.6627L63.3877 28.6751ZM55.5707 26.5182C55.9006 27.0374 57.0074 27.4642 57.8364 27.7218L60.2909 27.7544C60.9071 27.5988 61.3381 27.4053 61.3381 27.4053C61.3381 27.4053 60.6588 26.9513 61.1091 26.3024C61.5594 25.6535 61.5398 24.8848 60.9133 24.7251C61.2266 25.4861 60.5518 25.7874 60.0179 26.0259C59.5723 26.2249 59.2248 26.3802 59.6312 26.7222C59.1771 26.5964 58.7365 26.5143 58.3232 26.4628L58.3233 26.4627L58.3129 26.4615L58.3051 26.4605C58.1276 26.4383 56.7217 26.2331 57.1439 25.344C57.1439 25.344 56.1209 25.9253 56.7793 26.3934C56.5352 26.4015 56.3209 26.4179 56.1431 26.4361L56.143 26.4361C56.143 26.4361 55.3133 26.4272 55.5189 25.4988C55.5189 25.4988 54.9568 26.15 55.5707 26.5182Z" fill="#EBF855"/>
<path fill-rule="evenodd" clip-rule="evenodd" d="M69.9267 29.0602L69.9268 29.0643L69.917 29.0701L69.9267 29.0602ZM71.5677 28.0591C71.5798 28.0449 71.5923 28.0307 71.6052 28.0167C71.5761 28.0413 71.5567 28.0543 71.5567 28.0543L71.5677 28.0591ZM71.7043 27.9183C71.8919 27.7485 72.1407 27.6099 72.4706 27.5459C72.6292 27.5148 72.7862 27.4975 72.9404 27.4921C73.2365 27.2294 72.9624 27.1069 72.6128 26.9508C72.1857 26.76 71.6459 26.5189 71.8965 25.9102C71.3953 26.038 71.3796 26.6529 71.7398 27.172C71.9681 27.501 71.8336 27.7673 71.7043 27.9183ZM72.9847 27.4908C73.7715 27.4745 74.4847 27.763 74.9921 28.0872C75.4965 27.89 75.9859 27.6354 76.1706 27.3446C76.6617 27.0501 76.2121 26.5291 76.2121 26.5291C76.3765 27.2719 75.7128 27.279 75.7128 27.279L75.7127 27.279C75.5704 27.2644 75.399 27.2513 75.2037 27.2448C75.7304 26.8703 74.912 26.4053 74.912 26.4053C75.2498 27.1166 74.125 27.2808 73.9831 27.2985L73.9768 27.2993L73.9685 27.3002L73.9686 27.3003C73.6569 27.3391 73.3259 27.3997 72.9847 27.4908Z" fill="#EBF855"/>
<path d="M68.186 41.6344C68.186 41.6344 69.0432 39.7626 68.657 37.4667C68.657 37.4667 67.0289 36.8712 64.071 37.4667C64.071 37.4667 62.6559 40.6123 60.8545 42.1436C60.8545 42.1436 62.2278 38.9538 61.4114 36.5733C61.4114 36.5733 63.8983 35.5954 66.944 35.8078C69.9872 36.0201 70.6717 36.659 70.6717 36.659C70.6717 36.659 69.901 40.2734 68.186 41.6344ZM66.2209 48.2242C67.636 47.198 67.4853 45.187 67.4853 45.187C67.8281 45.9833 68.0201 47.0473 67.8281 47.8074C67.6361 48.5658 67.14 49.3257 65.0722 49.5141C63.005 49.7052 61.8186 49.0588 61.8186 49.0588C62.7386 48.1484 63.631 45.6806 63.631 45.6806C64.0911 47.4289 63.7001 48.2376 63.7001 48.2376C64.6954 48.5403 66.2209 48.2242 66.2209 48.2242ZM69.477 47.892C69.9753 51.5007 66.7406 53.0154 64.9433 53.0154C63.1451 53.0154 60.6734 52.258 59.7303 49.2282C58.7872 46.1973 58.7872 42.4536 59.9999 40.6264C59.9999 40.6264 59.1924 44.2361 59.641 46.287C60.09 48.3368 60.9436 50.0748 62.6056 50.3878C64.2687 50.6987 66.7406 50.6099 67.6381 49.5837C68.5382 48.5586 68.8967 47.0885 67.9987 45.0821C67.0991 43.078 65.3024 40.4919 68.2708 37.9089C68.2708 37.9089 66.9656 39.4672 67.4597 41.7414C67.9531 44.0134 68.9773 44.2843 69.477 47.892ZM57.8653 32.9668C51.0948 32.0427 45.5412 33.4147 45.5412 33.4147C50.9949 31.6712 55.9536 31.8891 58.3979 32.1669C58.1693 32.4451 57.9936 32.7129 57.8653 32.9668ZM57.5475 34.6372C50.9305 34.1825 45.6829 35.7916 45.6829 35.7916C50.4542 33.9712 54.9197 33.7313 57.5726 33.8045C57.5187 34.0789 57.5103 34.3601 57.5475 34.6372ZM46.402 44.1292C43.8758 41.0552 44.9392 36.9472 44.9392 36.9472C44.9392 36.9472 45.034 40.4708 48.1336 43.5836C51.2345 46.6976 55.0825 47.54 55.0825 47.54C55.0825 47.54 48.9287 47.2052 46.402 44.1292ZM59.9978 30.7477C59.6497 30.9875 59.3499 31.2226 59.0888 31.4552C51.8432 29.7573 45.5066 30.9605 45.5066 30.9605C53.353 28.919 59.9978 30.7477 59.9978 30.7477ZM54.3474 26.986L54.3489 26.9845L54.351 26.9834C54.4598 26.9373 56.6653 26.0231 58.9166 26.5308C61.226 27.0525 62.6589 28.6051 62.6589 28.6051C62.6589 28.6051 60.585 27.9883 56.7415 28.0563C56.7415 28.0563 56.5902 27.7787 56.9859 27.1973C56.9859 27.1973 56.3699 27.0188 54.3466 26.986H54.3474ZM71.3543 27.6213C72.536 27.3855 73.6145 27.9882 74.1213 28.4569C74.1213 28.4569 71.3889 27.9555 70.1083 29.1261C70.1083 29.1261 70.1757 27.8543 71.3543 27.6213ZM84.3765 36.562C81.7065 35.1174 78.6784 34.6684 76.3554 34.5785C76.3554 34.5785 75.4102 34.5956 75.2642 34.5915C75.3119 34.208 75.2998 33.8643 75.2385 33.5606C75.8153 33.5435 76.5453 33.5206 76.6521 33.5153L76.74 33.5101C81.3951 33.359 83.8564 34.5794 83.8564 34.5794L83.6203 34.4013C81.3531 33.359 78.9542 32.9775 76.8791 32.9193H76.796C76.796 32.9193 75.7937 32.9178 75.0313 32.9317C74.8225 32.4947 74.5173 32.1651 74.2097 31.9241C75.1899 31.9184 76.3256 31.9216 76.9797 31.9506L77.0274 31.9521C80.6091 31.9896 82.5628 32.8314 82.5628 32.8314L82.3277 32.6481C80.551 31.8959 78.7356 31.5554 77.0337 31.4428C77.0337 31.4428 74.8147 31.3249 73.1041 31.3348C73.5996 31.7069 73.9786 32.2426 74.0151 33.0124C74.1314 35.3836 71.6627 36.3393 71.6627 36.3393C72.2426 35.9562 73.2829 34.6574 73.0139 32.9735C72.7428 31.2917 70.5459 30.4922 70.5459 30.4922C70.5459 30.4922 67.9726 31.5984 67.4142 33.681C67.4142 33.681 67.4577 31.5133 63.8126 30.1091C63.8126 30.1091 65.5276 29.5993 67.3723 29.726C69.2155 29.8548 70.5459 30.4922 70.5459 30.4922C70.5459 30.4922 70.8855 29.601 72.6941 29.2962C74.5044 28.9914 76.461 29.4307 76.461 29.4307C76.1 28.7767 75.6838 27.8225 73.8642 27.0854C72.0461 26.3483 70.4148 27.0153 70.4148 27.0153C70.4148 27.0153 70.2965 26.1443 68.9747 25.296C66.8265 23.9179 61.1451 23.0966 60.0493 23.0375C58.9555 22.9804 60.8708 23.6796 61.6381 24.1141C62.5105 24.6067 63.4865 25.444 63.5703 26.2388C63.5917 26.4527 63.541 26.6385 63.4447 26.7937C63.3673 26.5716 63.2056 26.2876 62.9214 25.9252C61.365 23.9428 57.418 23.0852 54.4554 23.281C51.4933 23.4772 49.1394 24.5886 49.1394 24.5886C49.1733 24.8601 48.0471 25.8073 44.9406 26.1474C41.9806 26.4693 39.8914 25.9325 39.14 25.822L39.0829 25.8111C38.7783 25.7736 38.5496 25.7873 38.4539 26.0047L38.444 26.0348L38.4376 26.0753C38.4245 26.2268 38.5182 26.436 38.5182 26.436L38.4748 26.3535C38.6856 26.7547 39.9448 29.0575 41.6043 30.2394C41.6043 30.2394 42.596 30.0308 43.7724 29.9051C43.7724 29.9051 25.5896 38.6829 18.2231 52.3972C21.4328 52.0234 25.656 51.7825 30.2405 52.1833L30.2096 52.1802H30.207C30.869 51.0755 34.1911 44.9072 42.0915 41.1175C42.0915 41.1175 36.25 45.1456 34.1739 52.6828C36.8151 53.1271 39.513 53.8165 42.1548 54.8365C50.6459 58.1187 57.8035 61.5504 65.8724 61.4797L67.244 61.4199L67.2414 61.4136C65.0979 56.9821 62.9877 54.9568 62.9877 54.9568C64.5833 55.2407 65.8724 54.7896 65.8959 54.7818C66.0157 54.7387 66.1193 54.6962 66.2062 54.6568C68.8455 53.2454 69.2855 50.8566 69.5022 49.1452C69.7502 47.1664 69.3966 45.9009 69.3966 45.9009C69.3966 45.9009 73.9653 39.9522 75.125 35.2731C75.125 35.2731 75.7101 35.1937 76.1602 35.203C81.6044 35.2638 84.5797 36.7644 84.5797 36.7644L84.3767 36.5615L84.3765 36.562ZM78.4847 26.4377C78.5015 26.3998 78.5146 26.3645 78.525 26.3297L78.549 26.243L78.5486 26.2388C78.4434 25.9414 78.2351 25.9195 77.7945 25.9538C77.2208 26.0617 76.6427 26.1441 76.0616 26.2009H76.0627L75.981 26.2097L75.9229 26.215L75.7068 26.2348L75.6758 26.2358C75.0331 26.2882 74.626 26.2908 74.626 26.2908C76.2687 27.523 76.4609 29.4313 76.4609 29.4313L76.5451 29.3602C77.8058 28.4523 78.4847 26.4377 78.4847 26.4377Z" fill="black"/>
<path d="M61.4118 36.5734C62.2282 38.9539 60.855 42.1437 60.855 42.1437C62.6563 40.6124 64.0714 37.4667 64.0714 37.4667C67.0293 36.8713 68.6574 37.4667 68.6574 37.4667C69.0436 39.7626 68.1864 41.6345 68.1864 41.6345C69.9015 40.2734 70.6723 36.6591 70.6723 36.6591C70.6723 36.6591 69.9878 36.02 66.9446 35.8078C63.8987 35.5954 61.4119 36.5734 61.4119 36.5734H61.4118ZM71.3547 27.6213C70.1762 27.8543 70.1087 29.1261 70.1087 29.1261C71.3893 27.9556 74.1217 28.457 74.1217 28.457C73.6151 27.9882 72.5365 27.3856 71.3547 27.6213ZM66.2213 48.2244C66.2213 48.2244 64.6957 48.5405 63.7004 48.2378C63.7004 48.2378 64.0913 47.4291 63.6313 45.6808C63.6313 45.6808 62.739 48.1486 61.8189 49.059C61.8189 49.059 63.0053 49.7052 65.0725 49.5143C67.1402 49.3259 67.6362 48.566 67.8284 47.8076C68.0204 47.0477 67.8284 45.9835 67.4856 45.1872C67.4856 45.1872 67.6364 47.198 66.2211 48.2244H66.2213ZM58.9171 26.5307C56.6658 26.023 54.4604 26.9372 54.3516 26.9833C54.4583 26.9381 56.5642 26.066 58.7602 26.4979C57.5125 26.2633 56.9866 27.1972 56.9866 27.1972C56.591 27.7786 56.7422 28.0562 56.7422 28.0562C60.5855 27.9882 62.6596 28.605 62.6596 28.605C62.6596 28.605 61.2266 27.0524 58.9171 26.5307Z" fill="#BFC0BF"/>
<path d="M71.3547 27.6216C70.1762 27.8546 70.1087 29.1264 70.1087 29.1264C71.3893 27.9558 74.1217 28.4572 74.1217 28.4572C73.6151 27.9885 72.5365 27.3858 71.3547 27.6216ZM58.9171 26.531C56.6658 26.0233 54.4604 26.9374 54.3516 26.9836C54.4583 26.9383 56.5642 26.0663 58.7602 26.4982C57.5125 26.2635 56.9866 27.1974 56.9866 27.1974C56.591 27.7788 56.7422 28.0565 56.7422 28.0565C60.5855 27.9885 62.6596 28.6052 62.6596 28.6052C62.6596 28.6052 61.2266 27.0526 58.9171 26.531Z" fill="#EBF855"/>
<path d="M75.1252 35.2738C73.9656 39.9528 69.3968 45.9015 69.3968 45.9015L69.3989 45.8994C72.8519 42.9776 75.1535 37.8095 76.1604 35.2037C75.7103 35.1944 75.1252 35.2738 75.1252 35.2738ZM75.2644 34.5917C75.4104 34.5959 76.3556 34.5787 76.3556 34.5787C76.443 34.287 76.5497 33.9153 76.6523 33.5157C76.5456 33.5209 75.8155 33.5437 75.2388 33.5609C75.3 33.8646 75.312 34.208 75.2644 34.5917ZM67.4599 41.7416C66.9658 39.4674 68.2711 37.9091 68.2711 37.9091C65.3028 40.4921 67.0993 43.0782 67.9989 45.0823C68.897 47.0886 68.5385 48.5586 67.6383 49.5839C66.7408 50.6101 64.2691 50.6989 62.6059 50.388C60.9437 50.075 60.0902 48.3371 59.6412 46.2872C59.1927 44.2363 60.0001 40.6266 60.0001 40.6266C58.7876 42.4537 58.7876 46.1975 59.7305 49.2284C60.6736 52.2582 63.1453 53.0156 64.9435 53.0156C66.7406 53.0156 69.9754 51.5009 69.4772 47.8922C68.9775 44.2846 67.9535 44.0136 67.4599 41.7416ZM78.5787 26.0039L78.5723 25.9452L78.5677 25.9151L78.5515 25.8641L78.5415 25.8376L78.5201 25.7935L78.5086 25.7722L78.4804 25.7328L78.4647 25.7157L78.4338 25.6835L78.4176 25.669L78.3815 25.642L78.3643 25.6301L78.3272 25.6098L78.31 25.6L78.2723 25.5833L78.2561 25.5756L78.2205 25.5631L78.2048 25.5585L78.1702 25.5492L78.1588 25.5456L78.1269 25.5399L78.1176 25.5378L78.0929 25.5347L78.0872 25.5332L78.0594 25.53C75.7903 25.5544 73.9272 24.7908 73.9272 24.7908L73.7745 24.7363C68.7301 22.9054 63.4946 22.3813 58.8332 22.4653L58.8317 22.4606C56.7499 22.4798 55.23 22.6486 55.23 22.6486C48.537 23.2097 43.7391 24.8007 43.7391 24.8007C43.7391 24.8007 41.9174 25.3094 39.4922 25.1895C39.4922 25.1895 38.5915 25.1739 38.4136 25.7428C38.2613 26.1051 38.2403 26.536 38.5831 27.4792C38.9787 28.5672 40.5613 30.6124 40.5733 30.6275C35.7862 32.5565 23.3198 39.492 12.1514 53.4378C12.1514 53.4378 14.5117 52.8294 18.2237 52.3981C25.5902 38.6839 43.7729 29.9061 43.7729 29.9061C42.5965 30.0318 41.6048 30.2404 41.6048 30.2404C39.9453 29.0584 38.6862 26.7557 38.4753 26.3545L38.5188 26.437C38.5188 26.437 38.425 26.2278 38.4382 26.0762L38.4445 26.0358L38.4545 26.0057C38.5502 25.7882 38.779 25.7747 39.0834 25.812L39.1405 25.823C39.892 25.9335 41.9811 26.4702 44.9411 26.1484C48.0477 25.8084 49.1739 24.861 49.1399 24.5895C49.1399 24.5895 51.4939 23.4781 54.456 23.2819C57.4185 23.0862 61.3655 23.9437 62.9219 25.9261C63.2062 26.2884 63.3678 26.5724 63.4452 26.7946C63.5416 26.6395 63.5923 26.4536 63.5708 26.2398C63.4871 25.445 62.5111 24.6078 61.6386 24.1151C60.8714 23.6806 58.956 22.9814 60.0498 23.0384C61.1456 23.0976 66.827 23.9187 68.9752 25.297C70.2972 26.1453 70.4154 27.0163 70.4154 27.0163C70.4154 27.0163 72.0466 26.3492 73.8647 27.0864C75.6843 27.8235 76.1003 28.7775 76.4615 29.4317C76.4615 29.4317 76.2695 27.5235 74.6267 26.2911C74.6267 26.2911 75.0338 26.2886 75.6765 26.2362L75.7074 26.2351L75.9236 26.2153L75.9817 26.2101L76.0634 26.2013H76.0623C76.5616 26.1524 77.1539 26.0752 77.7951 25.9542C78.2357 25.9199 78.444 25.9417 78.5492 26.2392L78.5497 26.2433L78.5257 26.3301C78.5146 26.3669 78.5011 26.4029 78.4854 26.438C78.4854 26.438 77.8066 28.4527 76.5459 29.3605L76.4617 29.4317C76.4617 29.4317 74.5049 28.9925 72.6948 29.2972C70.8862 29.6019 70.5465 30.4932 70.5465 30.4932C70.5465 30.4932 72.7435 31.2926 73.0146 32.9744C73.2836 34.6584 72.2431 35.9571 71.6634 36.3402C71.6634 36.3402 74.1319 35.3846 74.0158 33.0134C73.9791 32.2436 73.6003 31.7079 73.1047 31.3357C74.8155 31.3259 77.0344 31.4437 77.0344 31.4437C77.0448 30.787 76.9349 30.2462 76.6827 29.7779C77.9957 28.6473 78.4809 26.9251 78.55 26.246L78.5511 26.245V26.2435C78.5574 26.2206 78.5693 26.1589 78.5714 26.1454L78.5751 26.1065C78.578 26.0841 78.5794 26.0615 78.5793 26.0389V26.0042L78.5787 26.0039ZM63.8128 30.1098C67.4578 31.514 67.4145 33.6816 67.4145 33.6816C67.9728 31.599 70.5461 30.4929 70.5461 30.4929C70.5461 30.4929 69.2158 29.8555 67.3725 29.7267C65.5277 29.6 63.8128 30.1098 63.8128 30.1098ZM74.2099 31.9245C74.5177 32.1653 74.8228 32.4949 75.0315 32.9321C75.7941 32.918 76.7962 32.9196 76.7962 32.9196C76.8683 32.5999 76.9322 32.278 76.9763 31.977L76.9799 31.9511C76.3257 31.9221 75.19 31.9189 74.2099 31.9246V31.9245ZM65.8963 54.7823C65.8727 54.7901 64.5837 55.2412 62.988 54.9573C62.988 54.9573 65.0981 56.9828 67.2418 61.4141L67.2443 61.4204L67.3281 61.4152C67.1209 59.3955 66.2516 56.0131 66.0507 55.3875L65.8963 54.7823ZM48.1342 43.5835C45.0344 40.4705 44.9397 36.9471 44.9397 36.9471C44.9397 36.9471 43.8763 41.0551 46.4025 44.1291C48.9292 47.2052 55.0831 47.54 55.0831 47.54C55.0831 47.54 51.235 46.6975 48.1343 43.5835H48.1342ZM30.2072 52.1807H30.2098L30.2407 52.1838C30.3563 52.1937 30.7263 52.228 30.7468 52.231C30.7971 52.2352 31.4324 52.3011 31.4382 52.3015C32.3536 52.4028 33.266 52.53 34.1742 52.6831C36.2502 45.146 42.0917 41.1178 42.0917 41.1178C34.1915 44.9077 30.8693 51.076 30.2072 52.1805V52.1807ZM45.507 30.9604C45.507 30.9604 51.8436 29.7572 59.0892 31.4551C59.3503 31.2225 59.6502 30.9874 59.9982 30.7476C59.9982 30.7476 53.3533 28.9189 45.507 30.9604ZM45.5416 33.4146C45.5416 33.4146 51.0952 32.0426 57.8656 32.9667C57.9938 32.7128 58.1696 32.445 58.3985 32.1668C55.9539 31.8891 50.9951 31.6711 45.5416 33.4146ZM58.76 26.4978C56.564 26.0659 54.4581 26.9379 54.3514 26.9832L54.3492 26.9842L54.3477 26.9857H54.3473C56.3705 27.0184 56.9865 27.197 56.9865 27.197C56.9865 27.197 57.5124 26.2633 58.7601 26.4978H58.76ZM45.6833 35.7915C45.6833 35.7915 50.9308 34.1823 57.5479 34.6371C57.5106 34.36 57.5191 34.0788 57.5729 33.8044C54.9201 33.7312 50.4545 33.9711 45.6833 35.7915Z" fill="#125740"/>
<path fill-rule="evenodd" clip-rule="evenodd" d="M62.894 28.8342L62.8825 28.8272L62.8826 28.8224L62.894 28.8342ZM55.5195 26.7897C55.8307 27.2819 56.8749 27.6864 57.657 27.9306L59.9725 27.9615C60.5538 27.8139 60.9604 27.6305 60.9604 27.6305C60.9604 27.6305 60.3196 27.2003 60.7445 26.5852C61.1693 25.9701 61.1508 25.2415 60.5597 25.0901C60.8552 25.8114 60.2187 26.097 59.715 26.3231C59.2946 26.5117 58.9667 26.6589 59.3502 26.9831C58.9218 26.8639 58.5061 26.786 58.1162 26.7372L58.1163 26.7371L58.1065 26.736L58.0991 26.7351C57.9317 26.714 56.6054 26.5195 57.0037 25.6767C57.0037 25.6767 56.0386 26.2277 56.6597 26.6714C56.4294 26.6791 56.2273 26.6946 56.0595 26.7119L56.0594 26.7119C56.0594 26.7119 55.2767 26.7035 55.4706 25.8234C55.4706 25.8234 54.9404 26.4407 55.5195 26.7897Z" fill="#EBF855"/>
<path fill-rule="evenodd" clip-rule="evenodd" d="M69.0624 29.1993L69.0624 29.2031L69.0532 29.2086L69.0624 29.1993ZM70.6105 28.2503C70.622 28.2368 70.6338 28.2234 70.6459 28.2101C70.6184 28.2334 70.6001 28.2457 70.6001 28.2457L70.6105 28.2503ZM70.7394 28.1168C70.9164 27.9559 71.1511 27.8245 71.4622 27.7638C71.6119 27.7343 71.76 27.718 71.9055 27.7128C72.1849 27.4638 71.9262 27.3478 71.5965 27.1998C71.1935 27.0189 70.6843 26.7904 70.9207 26.2134C70.4478 26.3345 70.433 26.9174 70.7729 27.4095C70.9883 27.7213 70.8613 27.9737 70.7394 28.1168ZM71.9473 27.7116C72.6896 27.6961 73.3623 27.9696 73.841 28.2769C74.3169 28.09 74.7786 27.8487 74.9529 27.5731C75.4162 27.2939 74.992 26.8 74.992 26.8C75.1471 27.5041 74.5209 27.5108 74.5209 27.5108L74.5209 27.5108C74.3866 27.497 74.2249 27.4846 74.0407 27.4784C74.5376 27.1235 73.7655 26.6827 73.7655 26.6827C74.0842 27.3569 73.0231 27.5125 72.8892 27.5294L72.8832 27.5301L72.8754 27.531L72.8755 27.5311C72.5815 27.5678 72.2692 27.6253 71.9473 27.7116Z" fill="#EBF855"/>
</g>
</svg>
